/* XPM */
static char * tux_icon_32x32_xpm[] = {
"32 32 270 2",
"  	c None",
". 	c #040204",
"+ 	c #0C0B0B",
"@ 	c #121212",
"# 	c #050405",
"$ 	c #060406",
"% 	c #3C3B3B",
"& 	c #A1A1A1",
"* 	c #242224",
"= 	c #262626",
"- 	c #7E7F7F",
"; 	c #303031",
"> 	c #424243",
", 	c #2E2D2E",
"' 	c #5A5958",
") 	c #686868",
"! 	c #505050",
"~ 	c #4B4A4B",
"{ 	c #1C1A1B",
"] 	c #5A5750",
"^ 	c #2B261B",
"/ 	c #4C4635",
"( 	c #777676",
"_ 	c #202020",
": 	c #D9920C",
"< 	c #3B2E09",
"[ 	c #9C810A",
"} 	c #BD9607",
"| 	c #9D7207",
"1 	c #19120A",
"2 	c #060405",
"3 	c #583814",
"4 	c #D47B1E",
"5 	c #C46510",
"6 	c #DC9C0C",
"7 	c #FCEC0C",
"8 	c #CD870D",
"9 	c #080608",
"0 	c #807028",
"a 	c #D7BB1A",
"b 	c #E2B20B",
"c 	c #C8930A",
"d 	c #7E5A0C",
"e 	c #262322",
"f 	c #050305",
"g 	c #985614",
"h 	c #BC600F",
"i 	c #D4940C",
"j 	c #FCE30C",
"k 	c #A26F16",
"l 	c #313131",
"m 	c #3E3D3E",
"n 	c #BEAC48",
"o 	c #E8C616",
"p 	c #EBB40D",
"q 	c #B0810F",
"r 	c #C0B398",
"s 	c #606060",
"t 	c #070607",
"u 	c #1A0E06",
"v 	c #AA560E",
"w 	c #CD820C",
"x 	c #F8C40C",
"y 	c #AA7316",
"z 	c #2C2C2B",
"A 	c #072907",
"B 	c #040804",
"C 	c #949594",
"D 	c #D8CE93",
"E 	c #DEBA15",
"F 	c #C89914",
"G 	c #D2BEA4",
"H 	c #F8F8F8",
"I 	c #C4C4C4",
"J 	c #121112",
"K 	c #4B2608",
"L 	c #EEB50C",
"M 	c #F2CC0C",
"N 	c #DD970C",
"O 	c #452B1A",
"P 	c #095009",
"Q 	c #0B6A0B",
"R 	c #083608",
"S 	c #3A3D3A",
"T 	c #BEBEBE",
"U 	c #E5E5E4",
"V 	c #F7F6F7",
"W 	c #F4F4F4",
"X 	c #F5F5F5",
"Y 	c #F6F6F6",
"Z 	c #C2C2C2",
"` 	c #1A191A",
" .	c #080404",
"..	c #8D550A",
"+.	c #FCD80C",
"@.	c #EEB30C",
"#.	c #C5740C",
"$.	c #051905",
"%.	c #0A590A",
"&.	c #6D8472",
"*.	c #999999",
"=.	c #9E9E9D",
"-.	c #B6B6B5",
";.	c #CCCCCB",
">.	c #D8D9C4",
",.	c #CECEB2",
"'.	c #A5A683",
").	c #44441A",
"!.	c #393809",
"~.	c #241706",
"{.	c #D08A0C",
"].	c #FCE50C",
"^.	c #F3C30C",
"/.	c #CE7D0D",
"(.	c #0C0A1D",
"_.	c #0A08F9",
":.	c #3331B4",
"<.	c #54528D",
"[.	c #6564DE",
"}.	c #8B8A98",
"|.	c #C8C86F",
"1.	c #D1D07D",
"2.	c #DDDD90",
"3.	c #A7A865",
"4.	c #424013",
"5.	c #1C0B06",
"6.	c #EFA70C",
"7.	c #FCF12A",
"8.	c #FCEC1D",
"9.	c #F6CC0C",
"0.	c #B26C0D",
"a.	c #5D3908",
"b.	c #121045",
"c.	c #0402F8",
"d.	c #262455",
"e.	c #121147",
"f.	c #4746AE",
"g.	c #F7F7F7",
"h.	c #BFBFBF",
"i.	c #100F10",
"j.	c #0E0505",
"k.	c #F1A40C",
"l.	c #FCF744",
"m.	c #FCE82C",
"n.	c #F7C40C",
"o.	c #80480A",
"p.	c #070404",
"q.	c #3A0608",
"r.	c #0D0861",
"s.	c #0402EE",
"t.	c #675B29",
"u.	c #564872",
"v.	c #6764AC",
"w.	c #E8E8E8",
"x.	c #2C2B2C",
"y.	c #C27A0C",
"z.	c #FBE40C",
"A.	c #FAD00D",
"B.	c #EDA60C",
"C.	c #492607",
"D.	c #710A0C",
"E.	c #2F057E",
"F.	c #060493",
"G.	c #B8AC8D",
"H.	c #5046A0",
"I.	c #0402F9",
"J.	c #8886A9",
"K.	c #F0EFF0",
"L.	c #9C600B",
"M.	c #F6C10E",
"N.	c #F7B60C",
"O.	c #C17D0B",
"P.	c #720A0C",
"Q.	c #2C0597",
"R.	c #3B3A4B",
"S.	c #F3F3F3",
"T.	c #7271AE",
"U.	c #ACACB6",
"V.	c #F5F6F5",
"W.	c #DDDEDD",
"X.	c #161516",
"Y.	c #6C4408",
"Z.	c #E08F0C",
"`.	c #E4960C",
" +	c #E1910C",
".+	c #BE7B0B",
"++	c #1E0406",
"@+	c #6F0A0C",
"#+	c #200470",
"$+	c #8E8E8E",
"%+	c #9190AE",
"&+	c #0A08D6",
"*+	c #C8C7CE",
"=+	c #EFEFEF",
"-+	c #ECECEC",
";+	c #EAEAE9",
">+	c #858685",
",+	c #210406",
"'+	c #72160A",
")+	c #A64A0C",
"!+	c #9B4F0C",
"~+	c #E3920C",
"{+	c #C07E0B",
"]+	c #050204",
"^+	c #180305",
"/+	c #6B0A0C",
"(+	c #740A0C",
"_+	c #7A0A0C",
":+	c #800A0C",
"<+	c #35216F",
"[+	c #AFA68D",
"}+	c #9D9A98",
"|+	c #1614BA",
"1+	c #A68184",
"2+	c #AF8484",
"3+	c #A66F6F",
"4+	c #8A494A",
"5+	c #650D0E",
"6+	c #820A0C",
"7+	c #5E0A0C",
"8+	c #520A0C",
"9+	c #120305",
"0+	c #6C090B",
"a+	c #7E0A0C",
"b+	c #830F10",
"c+	c #D6A623",
"d+	c #DAC180",
"e+	c #DADADA",
"f+	c #C69F23",
"g+	c #4A366F",
"h+	c #760A0C",
"i+	c #701212",
"j+	c #D51F1E",
"k+	c #BD1919",
"l+	c #A51314",
"m+	c #8D0D0E",
"n+	c #6C0935",
"o+	c #886665",
"p+	c #614E2E",
"q+	c #A59670",
"r+	c #F2BE0F",
"s+	c #88591C",
"t+	c #5D0A0C",
"u+	c #120406",
"v+	c #5A0F10",
"w+	c #F02624",
"x+	c #E22221",
"y+	c #C62026",
"z+	c #931854",
"A+	c #7A2349",
"B+	c #80444C",
"C+	c #5D163E",
"D+	c #780A0C",
"E+	c #3B080A",
"F+	c #420C0D",
"G+	c #EE2624",
"H+	c #D9201F",
"I+	c #C11A1A",
"J+	c #A91414",
"K+	c #900E0F",
"L+	c #830A0C",
"M+	c #610A0C",
"N+	c #290E10",
"O+	c #E62422",
"P+	c #C31C1B",
"Q+	c #550F11",
"R+	c #2C292A",
"S+	c #DE2322",
"T+	c #0A0507",
"U+	c #E52422",
"                                                                ",
"                                                                ",
"                              . . . . .                         ",
"                              . . . . . .                       ",
"                            . . . . . . .                       ",
"                            + @ . # $ . .                       ",
"                            % & * = - ; .                       ",
"                            > , ' ) ! ~ .                       ",
"                            { ] ^ / ( _ .         :             ",
"                            < [ } | 1 2 . 3 4 5 6 7 8           ",
"                          9 0 a b c d e f . g h i j k l         ",
"                    . . . m n o p q r s t . u v w x y z         ",
"                  A B . $ C D E F G H I J . . K L M N O         ",
"                . P Q R S T U V W X Y Z ` .  ...+.7 @.#.        ",
"                  . $.%.&.*.=.-.;.>.,.'.).!.~.{.].7 ^./.        ",
"                  . . (._.:.<.[.}.|.1.2.3.4.5.6.7.8.9.0.a.      ",
"                  . . b.c.d.e.c.f.g.H H h.i.j.k.l.m.n.o.p.. .   ",
"                  . q.r.s.t.u.c.v.X H H w.x.. y.z.A.B.C.. . .   ",
"                    D.E.F.G.H.I.J.X H H K.x.. L.M.N.O. .. . .   ",
"    . . . . .     P.P.Q.R.S.T.s.U.S.W V.W.X.Y.Z.`. +.+. . . .   ",
"  . . . . . . ++@+P.P.#+$+g.%+&+*+=+-+;+>+,+'+)+!+~+{+]+. . .   ",
"  . . . . . ^+/+(+_+:+<+[+V }+|+1+2+3+4+5+6+6+7+8+          .   ",
"  . . . . 9+0+a+6+6+b+c+d+e+f+g+6+6+6+6+6+6+h+8+                ",
"  . . . . i+j+k+l+m+n+o+p+q+r+s+6+6+6+6+6+6+t+u+. .             ",
"  . . . . v+w+w+w+w+x+y+z+A+B+C+6+6+6+6+6+D+E+. . . . . .       ",
"      . . F+w+w+w+w+w+w+w+w+G+H+I+J+K+L+6+M+N+. . . . . .       ",
"            w+w+w+w+w+w+w+w+w+w+w+w+w+O+P+Q+R+. . . . . .       ",
"                      w+w+w+w+w+w+w+w+w+S+8+T+. . . . . .       ",
"                              w+w+w+w+w+S+8+. . . . . . .       ",
"                                      w+U+  . . . . . . .       ",
"                                              . . . . .         ",
"                                                                "};
