/* XPM */
static char * supertuxkart_32_xpm[] = {
"32 32 191 2",
"  	c None",
". 	c #000000",
"+ 	c #C4C4C4",
"@ 	c #939392",
"# 	c #888887",
"$ 	c #BDBCB4",
"% 	c #FACA00",
"& 	c #CFA400",
"* 	c #262315",
"= 	c #850303",
"- 	c #920000",
"; 	c #8A0002",
"> 	c #820000",
", 	c #860000",
"' 	c #860001",
") 	c #700000",
"! 	c #050200",
"~ 	c #D2AB00",
"{ 	c #D9B100",
"] 	c #D4AD00",
"^ 	c #E6B900",
"/ 	c #C84C4A",
"( 	c #B90000",
"_ 	c #B70000",
": 	c #C32D2B",
"< 	c #A50000",
"[ 	c #B40000",
"} 	c #AD0000",
"| 	c #AE0004",
"1 	c #AC0000",
"2 	c #A30106",
"3 	c #FEFFFF",
"4 	c #E8C115",
"5 	c #E9C019",
"6 	c #FFFFFF",
"7 	c #2E2D2B",
"8 	c #462C1D",
"9 	c #F7F7F7",
"0 	c #FAFAF8",
"a 	c #FAFAFA",
"b 	c #434343",
"c 	c #262726",
"d 	c #6A6A6A",
"e 	c #F6F6F6",
"f 	c #EEECEC",
"g 	c #FEFDFD",
"h 	c #020202",
"i 	c #575857",
"j 	c #E1E2E1",
"k 	c #0C0C0C",
"l 	c #1E1F1E",
"m 	c #F0C9B3",
"n 	c #EEEEEE",
"o 	c #232323",
"p 	c #F4F4F4",
"q 	c #6B6B6B",
"r 	c #040404",
"s 	c #070807",
"t 	c #262626",
"u 	c #141514",
"v 	c #C0A291",
"w 	c #010100",
"x 	c #5A5A5A",
"y 	c #474747",
"z 	c #B5B5B5",
"A 	c #595959",
"B 	c #10100F",
"C 	c #6F5447",
"D 	c #CACACA",
"E 	c #0A0A0A",
"F 	c #8C8C8C",
"G 	c #8E8E8E",
"H 	c #030303",
"I 	c #BB0000",
"J 	c #CB0000",
"K 	c #F0F0F0",
"L 	c #575757",
"M 	c #8E0000",
"N 	c #6A0000",
"O 	c #390000",
"P 	c #B60000",
"Q 	c #F9F9F9",
"R 	c #FBFBFA",
"S 	c #FAFAFB",
"T 	c #D4D4D4",
"U 	c #E6E6E6",
"V 	c #656565",
"W 	c #6E0000",
"X 	c #9E0000",
"Y 	c #A40000",
"Z 	c #220000",
"` 	c #464646",
" .	c #A10000",
"..	c #9F0000",
"+.	c #B80000",
"@.	c #560000",
"#.	c #242424",
"$.	c #FBFCFF",
"%.	c #F8F8F8",
"&.	c #FEFEFE",
"*.	c #ACB4D2",
"=.	c #A95A01",
"-.	c #D97B00",
";.	c #190000",
">.	c #4A0000",
",.	c #A60000",
"'.	c #BC0000",
").	c #DB0000",
"!.	c #B49500",
"~.	c #E9BD00",
"{.	c #EABF00",
"].	c #E8BA00",
"^.	c #EDCF59",
"/.	c #FCFFFF",
"(.	c #CCAA11",
"_.	c #BF9C01",
":.	c #E9BF00",
"<.	c #E7BC00",
"[.	c #F4DF00",
"}.	c #9E0200",
"|.	c #5B0000",
"1.	c #A20000",
"2.	c #EFC800",
"3.	c #EDC500",
"4.	c #EECA00",
"5.	c #EDCB00",
"6.	c #F0CF00",
"7.	c #F2D700",
"8.	c #4D4702",
"9.	c #C36800",
"0.	c #A82400",
"a.	c #980000",
"b.	c #C20000",
"c.	c #640000",
"d.	c #430000",
"e.	c #0E0000",
"f.	c #C10000",
"g.	c #9C0000",
"h.	c #A30200",
"i.	c #680000",
"j.	c #A00000",
"k.	c #310000",
"l.	c #2D2D2D",
"m.	c #A70000",
"n.	c #E6EDED",
"o.	c #000101",
"p.	c #A1A1A1",
"q.	c #010101",
"r.	c #B50000",
"s.	c #A30000",
"t.	c #B30000",
"u.	c #5C0000",
"v.	c #B00000",
"w.	c #9D0000",
"x.	c #A80000",
"y.	c #AA0000",
"z.	c #900000",
"A.	c #212120",
"B.	c #150000",
"C.	c #A90000",
"D.	c #AB0000",
"E.	c #B20000",
"F.	c #B10000",
"G.	c #2E2E2E",
"H.	c #AF0000",
"I.	c #AE0000",
"J.	c #BE4E4E",
"K.	c #DD9C9C",
"L.	c #F8FFFF",
"M.	c #F9FFFF",
"N.	c #B91A1A",
"O.	c #B52323",
"P.	c #C46161",
"Q.	c #D17D7D",
"R.	c #E4C2C2",
"S.	c #EFFBFB",
"T.	c #F1FFFF",
"U.	c #F0FCFC",
"V.	c #F0F2F2",
"W.	c #F3F2F1",
"X.	c #F4F1F1",
"Y.	c #F1EFEF",
"Z.	c #ECF2F2",
"`.	c #EAEDED",
" +	c #E9EBEB",
".+	c #EBEAEA",
"++	c #EAE8E8",
"@+	c #EFEDEC",
"#+	c #F0ECEA",
"$+	c #F1F0F1",
"%+	c #E7E6E7",
"                                                                ",
"                                                                ",
"                                                                ",
"                                                                ",
"                                                                ",
"                          . . . .                               ",
"                          . . . .                               ",
"                        . . + @ # .                             ",
"                        . . $ % & *                             ",
"          = - ; > , ' ) . ! ~ { ] ^ / (                         ",
"      _ : < [ } | 1 2   . . 3 4 5 6                             ",
"              7       8 . . 9 0 0 a b                           ",
"              c       . . d 9 e 6 f g h                         ",
"          i j k l   m h . n 6 o p 6 q . .                       ",
"          r s t u . v w . . x y z n A . .                       ",
"          B .   . . C . . . . D E . F G H . . .                 ",
"  . . . . . .   I J . . 6 6 K L 6 . r 6 M N . . .               ",
"  . . . . . O < P P . . Q R S 6 T U V 6 W X Y Z .               ",
"  ` . . . .  . ...+.@.. #.$.6 $.%.&.. *.=.-.X ;.)               ",
"  . . . . >.Y ,. .'.).. !.~.{.].^./.(._.{.:.<.[.}.              ",
"  . . . . |...X  .1. .2.3.4.5.6.7.8.6.. 9.0.a.< b.. . . . .     ",
"  . . . . . 1 W c.d.e.. f.1. .Y  .g.h.i.( j.Y j.k.. l.. . . .   ",
"  . . . . . . . . . . . . j. .Y  .<  .1.1 1.1.1.m.. n.o.. . . . ",
"            . p.q.. . . . r.,.j.j.< X < m.j.1.s.1.j.s._ t.u.. . ",
"            . d q.. . . . v.1.< j.Y j.g.m.j.1... ...w.s.< x.y.z.",
"            A.q.. . B.b.,.C.,.D...1.,. .s.1.1.Y D.1 E.r.E.F.[ F.",
"            G.. . } x.x.} E.t.t.F.F.H.I.} I.I.H.1 1 < x.J.K.L.M.",
"              . . 6 N.v.H.1 C.x.x.y.O.P.Q.R.S.T.U.V.W.X.        ",
"                    Y.Z.`. +.+++@+#+$+%+                        ",
"                                                                ",
"                                                                ",
"                                                                "};
