<?xml version="1.0" encoding="UTF-8" standalone="no"?>
<!-- Created with Inkscape (http://www.inkscape.org/) -->

<svg
   xmlns:dc="http://purl.org/dc/elements/1.1/"
   xmlns:cc="http://creativecommons.org/ns#"
   xmlns:rdf="http://www.w3.org/1999/02/22-rdf-syntax-ns#"
   xmlns:svg="http://www.w3.org/2000/svg"
   xmlns="http://www.w3.org/2000/svg"
   xmlns:sodipodi="http://sodipodi.sourceforge.net/DTD/sodipodi-0.dtd"
   xmlns:inkscape="http://www.inkscape.org/namespaces/inkscape"
   inkscape:version="0.92.5 (2060ec1f9f, 2020-04-08)"
   sodipodi:docname="supertuxkart.svg"
   viewBox="0 0 256 256"
   height="256"
   width="256"
   id="svg869"
   version="1.1">
  <metadata
     id="metadata875">
    <rdf:RDF>
      <cc:Work
         rdf:about="">
        <dc:format>image/svg+xml</dc:format>
        <dc:type
           rdf:resource="http://purl.org/dc/dcmitype/StillImage" />
        <dc:title />
      </cc:Work>
    </rdf:RDF>
  </metadata>
  <defs
     id="defs873">
    <inkscape:path-effect
       effect="bspline"
       id="path-effect936"
       is_visible="true"
       weight="33.333333"
       steps="2"
       helper_size="0"
       apply_no_weight="true"
       apply_with_weight="true"
       only_selected="false" />
    <inkscape:path-effect
       effect="bspline"
       id="path-effect932"
       is_visible="true"
       weight="33.333333"
       steps="2"
       helper_size="0"
       apply_no_weight="true"
       apply_with_weight="true"
       only_selected="false" />
  </defs>
  <sodipodi:namedview
     pagecolor="#ffffff"
     bordercolor="#666666"
     borderopacity="1"
     objecttolerance="10"
     gridtolerance="10"
     guidetolerance="10"
     inkscape:pageopacity="0"
     inkscape:pageshadow="2"
     inkscape:window-width="1920"
     inkscape:window-height="1010"
     id="namedview871"
     showgrid="false"
     inkscape:zoom="3.0705317"
     inkscape:cx="107.28687"
     inkscape:cy="122.52489"
     inkscape:window-x="0"
     inkscape:window-y="34"
     inkscape:window-maximized="1"
     inkscape:current-layer="svg869" />
  <path
     inkscape:connector-curvature="0"
     id="path7066-6-2-7-6-7-9"
     d="m 151.68478,109.97254 0.55216,54.15708 35.09174,-0.27635 -1.66593,-55.06569 z"
     style="fill:#333333;stroke:#000000;stroke-width:10.77149963;stroke-linecap:butt;stroke-linejoin:round;stroke-miterlimit:4;stroke-dasharray:none;stroke-opacity:1;paint-order:stroke fill markers" />
  <path
     inkscape:connector-curvature="0"
     id="path7128-4-90-8-5-0-2"
     d="m 185.66275,108.78827 -30.52446,6.15765 -3.45351,-4.97338 z"
     style="fill:#4d4d4d;stroke:none;stroke-width:0.61893511px;stroke-linecap:butt;stroke-linejoin:miter;stroke-opacity:1" />
  <path
     inkscape:connector-curvature="0"
     id="path7130-9-61-0-7-93-0"
     d="m 155.13829,114.94592 -2.90135,49.1837 -0.55216,-54.15708 z"
     style="fill:#666666;stroke:none;stroke-width:0.61893511px;stroke-linecap:butt;stroke-linejoin:miter;stroke-opacity:1" />
  <path
     inkscape:connector-curvature="0"
     id="path7134-6-3-6-3-6-2"
     d="m 187.32868,163.85327 -1.66593,-55.065 -6.08206,49.5092 z"
     style="fill:#1a1a1a;stroke:none;stroke-width:0.61893511px;stroke-linecap:butt;stroke-linejoin:miter;stroke-opacity:1" />
  <path
     inkscape:connector-curvature="0"
     id="path7132-9-8-7-5-0-3"
     d="m 152.23694,164.12962 35.09174,-0.27635 -7.74799,-5.55649 z"
     style="fill:#000000;stroke:none;stroke-width:0.61893511px;stroke-linecap:butt;stroke-linejoin:miter;stroke-opacity:1" />
  <path
     inkscape:connector-curvature="0"
     id="path7066-6-2-7-6-7"
     d="M 6.0692728,118.8204 6.6214472,172.9775 41.713191,172.70114 40.04725,117.63545 Z"
     style="fill:#333333;stroke:#000000;stroke-width:10.77149963;stroke-linecap:butt;stroke-linejoin:round;stroke-miterlimit:4;stroke-dasharray:none;stroke-opacity:1;paint-order:stroke fill markers" />
  <path
     inkscape:connector-curvature="0"
     id="path7128-4-90-8-5-0"
     d="M 40.04725,117.63615 9.5227927,123.79379 6.0692728,118.8204 Z"
     style="fill:#4d4d4d;stroke:none;stroke-width:0.61893511px;stroke-linecap:butt;stroke-linejoin:miter;stroke-opacity:1" />
  <path
     inkscape:connector-curvature="0"
     id="path7130-9-61-0-7-93"
     d="M 9.5227927,123.79379 6.6214472,172.9775 6.0692728,118.8204 Z"
     style="fill:#666666;stroke:none;stroke-width:0.61893511px;stroke-linecap:butt;stroke-linejoin:miter;stroke-opacity:1" />
  <path
     inkscape:connector-curvature="0"
     id="path7134-6-3-6-3-6"
     d="M 41.713191,172.70114 40.04725,117.63615 33.965193,167.14534 Z"
     style="fill:#1a1a1a;stroke:none;stroke-width:0.61893511px;stroke-linecap:butt;stroke-linejoin:miter;stroke-opacity:1" />
  <path
     inkscape:connector-curvature="0"
     id="path7132-9-8-7-5-0"
     d="m 6.6214472,172.9775 35.0917438,-0.27636 -7.747998,-5.55648 z"
     style="fill:#000000;stroke:none;stroke-width:0.61893511px;stroke-linecap:butt;stroke-linejoin:miter;stroke-opacity:1" />
  <path
     inkscape:connector-curvature="0"
     id="path7066-6-2-7-6-6"
     d="m 197.29486,151.37706 0.55218,50.38239 35.09174,-0.25709 -1.66594,-51.22766 z"
     style="fill:#333333;stroke:#000000;stroke-width:10.38933945;stroke-linecap:butt;stroke-linejoin:round;stroke-miterlimit:4;stroke-dasharray:none;stroke-opacity:1;paint-order:stroke fill markers" />
  <path
     inkscape:connector-curvature="0"
     id="path7128-4-90-8-5-2"
     d="m 231.27284,150.27534 -30.52447,5.72846 -3.45351,-4.62674 z"
     style="fill:#4d4d4d;stroke:none;stroke-width:0.59697598px;stroke-linecap:butt;stroke-linejoin:miter;stroke-opacity:1" />
  <path
     inkscape:connector-curvature="0"
     id="path7130-9-61-0-7-9"
     d="m 200.74837,156.0038 -2.90133,45.75565 -0.55218,-50.38239 z"
     style="fill:#666666;stroke:none;stroke-width:0.59697598px;stroke-linecap:butt;stroke-linejoin:miter;stroke-opacity:1" />
  <path
     inkscape:connector-curvature="0"
     id="path7134-6-3-6-3-1"
     d="m 232.93878,201.50236 -1.66594,-51.22702 -6.08206,46.05845 z"
     style="fill:#1a1a1a;stroke:none;stroke-width:0.59697598px;stroke-linecap:butt;stroke-linejoin:miter;stroke-opacity:1" />
  <path
     style="fill:#707070;fill-opacity:1;fill-rule:evenodd;stroke:#000000;stroke-width:6.46290016;stroke-linecap:butt;stroke-linejoin:miter;stroke-miterlimit:4;stroke-dasharray:none;stroke-opacity:1"
     d="M 41.484901,75.560139 56.043043,116.68216 69.170265,115.35784 51.001745,75.560139 Z"
     id="path971"
     inkscape:connector-curvature="0"
     sodipodi:nodetypes="ccccc" />
  <path
     style="fill:#707070;fill-opacity:1;fill-rule:evenodd;stroke:none;stroke-width:3.23145008;stroke-linecap:butt;stroke-linejoin:miter;stroke-miterlimit:4;stroke-dasharray:none;stroke-opacity:1"
     d="M 41.484901,75.560137 56.043043,116.68216 69.170265,115.35784 51.001745,75.560137 Z"
     id="path971-3"
     inkscape:connector-curvature="0"
     sodipodi:nodetypes="ccccc" />
  <path
     style="fill:#939393;fill-opacity:1;fill-rule:evenodd;stroke:none;stroke-width:1.07714999px;stroke-linecap:butt;stroke-linejoin:miter;stroke-opacity:1"
     d="m 41.484901,75.560139 23.26215,45.672571 -8.704008,-4.55055 z"
     id="path4604"
     inkscape:connector-curvature="0" />
  <path
     inkscape:connector-curvature="0"
     id="path7066-6-2-7-6"
     d="m 45.649094,156.77016 0.552174,54.15708 35.09174,-0.27635 -1.665941,-55.06568 z"
     style="fill:#333333;stroke:#000000;stroke-width:10.77149963;stroke-linecap:butt;stroke-linejoin:round;stroke-miterlimit:4;stroke-dasharray:none;stroke-opacity:1;paint-order:stroke fill markers" />
  <path
     inkscape:connector-curvature="0"
     id="path7128-4-90-8-5"
     d="m 79.627067,155.58589 -30.524455,6.15765 -3.453518,-4.97338 z"
     style="fill:#4d4d4d;stroke:none;stroke-width:0.61893511px;stroke-linecap:butt;stroke-linejoin:miter;stroke-opacity:1" />
  <path
     inkscape:connector-curvature="0"
     id="path7130-9-61-0-7"
     d="m 49.102612,161.74354 -2.901344,49.1837 -0.552174,-54.15708 z"
     style="fill:#666666;stroke:none;stroke-width:0.61893511px;stroke-linecap:butt;stroke-linejoin:miter;stroke-opacity:1" />
  <path
     inkscape:connector-curvature="0"
     id="path7134-6-3-6-3"
     d="m 81.293008,210.65089 -1.665941,-55.065 -6.082056,49.5092 z"
     style="fill:#1a1a1a;stroke:none;stroke-width:0.61893511px;stroke-linecap:butt;stroke-linejoin:miter;stroke-opacity:1" />
  <path
     inkscape:connector-curvature="0"
     id="path7132-9-8-7-5-2"
     d="m 197.84704,201.75945 35.09174,-0.25709 -7.748,-5.16921 z"
     style="fill:#000000;stroke:none;stroke-width:0.59697598px;stroke-linecap:butt;stroke-linejoin:miter;stroke-opacity:1" />
  <path
     style="fill:#ff0d0d;fill-opacity:1;fill-rule:evenodd;stroke:#000000;stroke-width:12.47797775;stroke-linecap:butt;stroke-linejoin:round;stroke-miterlimit:4;stroke-dasharray:none;stroke-opacity:1;paint-order:stroke markers fill"
     d="m 62.518591,208.48224 15.109611,8.63407 169.443478,-16.18886 2.00584,-8.18895 -6.32288,-11.23771 -49.64586,-11.87183 -9.74799,-10.03653 9.74799,-12.62789 -19.42664,-24.82293 -26.98144,-5.39629 -90.657657,3.23779 -20.505901,18.34736 5.396291,26.98146 39.932543,-9.71333 19.426634,24.82294 -37.774019,17.26814 z"
     id="path933"
     inkscape:connector-curvature="0"
     sodipodi:nodetypes="ccccccccccccccccc" />
  <path
     style="fill:#ce0003;fill-opacity:1;fill-rule:evenodd;stroke:none;stroke-width:1.07714999px;stroke-linecap:butt;stroke-linejoin:miter;stroke-opacity:1"
     d="m 172.62853,125.72841 -25.92783,-8.98309 26.98144,5.39629 z"
     id="path4934"
     inkscape:connector-curvature="0" />
  <path
     style="opacity:1;fill:#cfcfcf;fill-opacity:1;stroke:#000000;stroke-width:4.30859995;stroke-linecap:butt;stroke-linejoin:round;stroke-miterlimit:4;stroke-dasharray:none;stroke-opacity:1"
     d="m 162.4238,135.81215 -91.486696,2.03583 c 0,0 -1.327556,-30.25197 2.563914,-43.489606 1.736383,-5.906659 9.105909,-12.542249 12.183371,-13.483404 11.085349,-3.39014 56.661911,-3.779423 61.637391,0.944567 3.94303,3.743736 4.19122,3.86455 8.39968,11.089762 3.51927,6.042005 6.70234,42.902851 6.70234,42.902851 z"
     id="path938"
     inkscape:connector-curvature="0"
     sodipodi:nodetypes="ccssssc" />
  <path
     style="fill:#797979;fill-opacity:1;fill-rule:evenodd;stroke:#000000;stroke-width:9.47891998;stroke-linecap:butt;stroke-linejoin:round;stroke-miterlimit:4;stroke-dasharray:none;stroke-opacity:1;paint-order:stroke fill markers"
     d="m 67.760129,117.51214 -17.623552,-9.07563 -9.203144,6.15451 -9.406579,-4.42418 v -8.65168 l 8.227712,-8.227706 12.977514,2.61274 15.083942,9.499596 z"
     id="path969"
     inkscape:connector-curvature="0"
     sodipodi:nodetypes="ccccccccc" />
  <path
     inkscape:connector-curvature="0"
     id="path7132-9-8-7-5"
     d="m 46.201268,210.92724 35.09174,-0.27635 -7.747997,-5.55649 z"
     style="fill:#000000;stroke:none;stroke-width:0.61893511px;stroke-linecap:butt;stroke-linejoin:miter;stroke-opacity:1" />
  <path
     style="fill:#ffffff;fill-opacity:1;fill-rule:evenodd;stroke:none;stroke-width:1.07714999px;stroke-linecap:butt;stroke-linejoin:miter;stroke-opacity:1"
     d="m 62.518591,197.68968 15.206679,9.9709 171.35225,-14.92208 -2.00584,8.18895 -169.443478,16.18886 -15.109611,-8.63407 z"
     id="path1254"
     inkscape:connector-curvature="0"
     sodipodi:nodetypes="ccccccc" />
  <path
     style="fill:#ff3823;fill-opacity:1;fill-rule:evenodd;stroke:none;stroke-width:1.07714999px;stroke-linecap:butt;stroke-linejoin:miter;stroke-opacity:1"
     d="m 49.824984,155.40121 -6.737252,9.91072 39.932544,-9.71333 z"
     id="path883"
     inkscape:connector-curvature="0"
     sodipodi:nodetypes="cccc" />
  <path
     style="fill:#db200d;fill-opacity:1;fill-rule:evenodd;stroke:none;stroke-width:1.07714999px;stroke-linecap:butt;stroke-linejoin:miter;stroke-opacity:1"
     d="m 35.537142,138.33047 5.396291,26.98146 6.73725,-9.91072 z"
     id="path885"
     inkscape:connector-curvature="0"
     sodipodi:nodetypes="cccc" />
  <path
     style="fill:#ba0002;fill-opacity:1;fill-rule:evenodd;stroke:none;stroke-width:1.07714999px;stroke-linecap:butt;stroke-linejoin:miter;stroke-opacity:1"
     d="m 193.10878,169.62896 12.91346,7.0552 32.9843,5.9292 3.7481,-1.11257 z"
     id="path887"
     inkscape:connector-curvature="0"
     sodipodi:nodetypes="ccccc" />
  <path
     style="fill:#ba0002;fill-opacity:1;fill-rule:evenodd;stroke:none;stroke-width:1.07714999px;stroke-linecap:butt;stroke-linejoin:miter;stroke-opacity:1"
     d="m 183.36079,159.59243 4.45692,-12.69925 -15.18918,-21.16477 1.05361,-3.5868 19.42664,24.82293 z"
     id="path889"
     inkscape:connector-curvature="0"
     sodipodi:nodetypes="cccccc" />
  <path
     style="fill:#ff484c;fill-opacity:1;fill-rule:evenodd;stroke:none;stroke-width:1.07714999px;stroke-linecap:butt;stroke-linejoin:miter;stroke-opacity:1"
     d="M 79.968352,199.96627 243.1498,188.87026 249.07752,192.7385 77.477215,208.03265 Z"
     id="path893"
     inkscape:connector-curvature="0"
     sodipodi:nodetypes="ccccc" />
  <path
     style="fill:#ba0002;fill-opacity:1;fill-rule:evenodd;stroke:none;stroke-width:1.07714999px;stroke-linecap:butt;stroke-linejoin:miter;stroke-opacity:1"
     d="m 187.81771,146.89318 -6.60826,13.88597 10.16572,10.16572 14.64707,5.73929 -12.91346,-7.0552 -9.74799,-10.03653 z"
     id="path895"
     inkscape:connector-curvature="0"
     sodipodi:nodetypes="ccccccc" />
  <path
     style="fill:#ba0002;fill-opacity:1;fill-rule:evenodd;stroke:none;stroke-width:1.07714999px;stroke-linecap:butt;stroke-linejoin:miter;stroke-opacity:1"
     d="M 100.29261,180.42154 72.879394,196.0669 62.518591,197.68968 Z"
     id="path897"
     inkscape:connector-curvature="0"
     sodipodi:nodetypes="cccc" />
  <path
     style="fill:#ff4a4d;fill-opacity:1;fill-rule:evenodd;stroke:none;stroke-width:1.07714999px;stroke-linecap:butt;stroke-linejoin:miter;stroke-opacity:1"
     d="m 80.216406,199.96627 -2.739191,8.06638 -14.958624,-10.34297 10.360803,-1.62278 z"
     id="path1252"
     inkscape:connector-curvature="0"
     sodipodi:nodetypes="ccccc" />
  <path
     style="fill:#ff0000;fill-opacity:1;fill-rule:evenodd;stroke:#000000;stroke-width:6.46290016;stroke-linecap:butt;stroke-linejoin:round;stroke-miterlimit:4;stroke-dasharray:none;stroke-opacity:1"
     d="M 10.714211,70.337236 135.90812,64.940946 152.09698,72.7843 13.951983,78.971299 Z"
     id="path935"
     inkscape:connector-curvature="0"
     sodipodi:nodetypes="ccccc" />
  <path
     style="fill:#ff0000;fill-opacity:1;fill-rule:evenodd;stroke:none;stroke-width:3.98545527;stroke-linecap:butt;stroke-linejoin:miter;stroke-miterlimit:4;stroke-dasharray:none;stroke-opacity:1"
     d="M 10.71421,70.337236 135.90812,64.940946 152.09698,72.7843 13.951982,78.971299 Z"
     id="path935-3"
     inkscape:connector-curvature="0"
     sodipodi:nodetypes="ccccc" />
  <path
     style="fill:#ff5353;fill-opacity:1;fill-rule:evenodd;stroke:none;stroke-width:1.07714999px;stroke-linecap:butt;stroke-linejoin:miter;stroke-opacity:1"
     d="M 13.951983,78.971299 12.50468,75.520174 152.09698,72.7843 Z"
     id="path4602"
     inkscape:connector-curvature="0"
     sodipodi:nodetypes="cccc" />
  <path
     style="opacity:1;fill:#ffffff;fill-opacity:1;stroke:none;stroke-width:6.46290016;stroke-linecap:butt;stroke-linejoin:round;stroke-miterlimit:4;stroke-dasharray:none;stroke-opacity:1;paint-order:stroke markers fill"
     d="m 100.58665,41.835855 27.36625,3.384773 9.47032,33.244146 16.41586,31.507766 -2.28057,39.38389 -67.901051,-2.11747 z"
     id="rect4594"
     inkscape:connector-curvature="0"
     sodipodi:nodetypes="ccccccc" />
  <path
     style="fill:#d1d1d1;stroke-width:1.07714999"
     d="m 91.895432,76.952992 c 0.31146,-6.218699 3.010654,-27.838058 3.010654,-27.838058 0,0 2.084325,-1.351725 3.519247,-3.757977 C 109.97275,25.992717 129.513,34.320221 132.48045,59.375713 l 1.48103,6.246554 c 2.69564,7.215108 4.43817,14.853817 9.28717,21.111879 0.35988,0.870595 3.11041,4.553155 6.11228,6.874908 5.32273,4.11679 6.1887,6.565786 6.1887,10.986376 0,1.2039 -0.19662,3.84354 0.39581,3.84354 0.59244,0 0.66626,23.19321 0.66626,24.08186 -26.01989,32.13994 -91.984666,42.79664 -64.716268,-55.567838 z m 43.898258,70.552398 c 1.29402,-0.67268 5.54062,-1.73525 5.74274,-1.90649 2.41884,-2.04929 -9.44458,-16.02803 -13.09945,-16.41692 -6.53433,-0.6953 -14.56258,-0.4973 -18.02928,-5.8662 -2.69836,-4.17895 -5.56506,-4.51992 -10.562521,-4.98965 -3.230834,-0.30368 -6.919732,-0.56132 -8.212705,-0.93789 -2.240524,-0.65254 -4.435441,1.18485 -3.950379,6.40679 1.163613,12.52681 4.981381,22.61465 12.292846,20.48406 5.492769,-1.5753 10.719379,-1.6656 19.859969,1.6209 9.69431,3.48556 7.60718,3.379 15.95878,1.6054 z m 15.7883,-9.36072 c 1.94508,-4.19323 0.048,-23.33017 -1.85898,-25.23712 -0.90129,-0.90131 -3.62683,0.59219 -4.14415,2.22212 -0.3834,1.20801 -3.20411,4.99958 -5.20709,6.75822 -3.64179,3.19753 -4.13789,5.67808 -1.25243,12.76337 3.30919,8.12576 5.64216,18.19695 12.46265,3.49341 z m -22.46728,-12.65666 c 0.14226,-4.66958 -7.88606,-7.20352 -10.6541,-5.94232 -4.05107,0.71559 -4.46638,5.93939 -3.90602,6.47051 1.96528,1.86275 14.47016,2.42536 14.56012,-0.52819 z m -9.45062,-8.0333 c 2.5054,-1.19401 8.30886,-3.31773 2.49215,-6.32379 -8.11563,-7.48148 -16.00356,0.34684 -14.23429,4.95748 0.70243,1.83051 3.55029,5.27034 11.74214,1.36631 z m 24.50769,-2.81461 c 0.6713,-1.25433 4.28586,-4.90262 -0.20104,-7.28259 -3.18367,-1.68872 -9.04204,3.84626 -9.47264,6.08223 -0.54188,2.81376 5.03229,7.05585 9.67368,1.20036 z m -9.0138,-5.4504 c 5.7894,-5.31524 8.16131,-11.234426 -1.99057,-11.513746 -10.79672,-0.29707 -20.24026,3.413966 -11.85752,11.950696 4.82209,4.91069 7.58138,5.31651 13.84809,-0.43695 z m -27.16848,-2.51938 c 0.37783,-1.19045 2.59977,-3.70163 4.93765,-5.5804 2.76719,-2.223786 3.81377,-3.685966 2.99877,-4.189646 -1.98956,-1.22963 5.15647,-4.477481 7.41946,-3.37214 1.545,0.75464 7.23963,0.87628 15.07037,0.32189 2.18306,-0.15456 1.58383,-2.643979 -2.58911,-10.756163 -4.48844,-8.725516 -4.14223,-8.53459 -8.99025,-4.957828 -4.69978,3.467386 -9.36723,3.44077 -16.34117,-0.0932 -6.46535,-3.27624 -6.51254,-3.235202 -8.39548,7.301081 -1.46262,8.1843 -0.97819,9.41581 3.73222,9.48795 3.64639,0.0558 5.74641,1.88864 3.20126,2.79395 -13.240974,4.709836 -15.061021,6.695506 -8.33391,9.092306 6.79877,2.42233 6.50559,2.42424 7.29019,-0.0479 z m -0.98742,-46.435032 c -0.12087,-5.767804 2.4293,-7.779566 5.92504,-4.674124 2.37409,2.109019 2.37409,2.109019 1.10231,-0.314568 -1.39852,-2.665106 -2.88864,-2.955321 -7.05019,-1.373098 -3.60611,1.37104 -4.13471,10.798161 -0.60549,10.798161 0.39671,0 0.67946,-1.996368 0.62833,-4.436371 z m 20.24156,-6.025778 c -2.40565,-1.759049 -4.88714,-1.419402 -5.60962,0.767799 -0.45766,1.385474 -0.2785,1.405054 1.25717,0.137395 2.08046,-1.717349 4.93086,-0.08004 5.14729,2.956659 0.0923,1.29539 0.26354,1.209234 0.65572,-0.329984 0.31982,-1.255252 -0.25665,-2.658859 -1.45056,-3.531869 z"
     id="path959-6"
     inkscape:connector-curvature="0"
     sodipodi:nodetypes="ccsccccssccccssscscccsscscssccssccscscccsscccccsssssscsccsccsssscscss" />
  <path
     style="fill:#9f9f9f;stroke-width:1.07714999"
     d="m 91.895432,76.952992 c 0,0 0.04021,-13.098566 0.554304,-18.171122 5.941606,-32.287012 34.479924,-34.65798 40.030714,0.593843 0,0 2.58424,26.198477 19.35997,35.569151 4.09965,2.68621 3.48454,10.083566 3.13692,15.928076 14.2878,62.20236 -113.089973,58.52578 -63.081908,-33.919948 z m 47.058888,69.395148 c 6.02485,-3.08765 -5.70837,-18.09614 -14.04586,-18.11186 -7.63622,-0.0144 -11.75695,-0.41584 -14.52369,-4.63843 -1.26877,-1.93638 -5.1744,-4.91303 -9.05104,-5.39267 -2.857839,-0.35359 -6.771432,-0.97068 -8.696838,-1.37126 -3.500733,-0.72836 -5.655033,1.42593 -5.655033,6.8109 0,13.84186 1.071384,25.44926 17.665661,21.20062 6.43319,-1.64709 8.80146,-0.13383 16.26455,2.6064 8.33074,3.05883 13.70784,1.11763 18.04225,-1.1037 z m 12.62767,-8.20347 c 3.54883,-7.81826 -0.58939,-31.55572 -4.23854,-25.23923 -0.6845,1.18487 -4.96533,7.11565 -6.93592,8.935 -4.32436,3.9925 -4.42171,5.84615 -0.54303,14.4004 4.61119,14.82848 9.03716,7.80872 11.71749,1.90383 z m -20.31971,-11.96652 c 0,-3.00202 -8.3324,-7.16155 -10.48762,-7.19526 -3.43312,-0.0536 -8.58092,5.1957 -6.10919,6.63361 2.05582,1.19596 16.59681,3.13074 16.59681,0.56165 z m -12.89877,-7.81951 c 10.85764,-3.49096 5.20374,-6.77669 0.85993,-9.02297 -5.03621,-2.60433 -10.83582,-0.33832 -10.49756,4.61559 -1.62503,4.98279 2.80144,6.45556 9.63763,4.40738 z m 24.75878,-2.43618 c 5.75443,-4.63819 1.55912,-9.07209 -1.00483,-9.07209 -2.35254,0 -7.04604,4.70461 -7.32311,6.72901 -0.4961,3.62501 3.8351,5.59565 8.32794,2.34308 z m -7.89607,-7.18575 c 9.25544,-8.998786 4.13186,-12.543786 -6.82266,-11.309046 -9.42828,1.0627 -12.65891,6.014816 -7.47299,10.852186 5.52518,5.15384 5.96736,8.55421 14.29565,0.45686 z m -24.40146,-4.65888 c 6.33421,-7.196006 12.23813,-9.633196 21.84278,-9.016806 7.81922,0.50181 7.81922,0.50181 7.08303,-3.524111 -0.57704,-3.155668 -6.16427,-14.816206 -8.1705,-17.051824 -0.20705,-0.230723 -2.05381,0.859892 -4.10392,2.423588 -4.99232,3.807828 -11.16639,3.822542 -17.61744,0.04197 -2.62884,-1.540608 -5.16288,-2.388863 -5.63119,-1.885013 -0.99456,1.070058 -4.317373,17.165378 -4.325213,20.95085 -0.003,1.42196 -1.178937,4.039546 -2.613335,5.816826 -2.662159,3.29856 -1.573293,4.13792 8.945768,6.89588 0.22153,0.058 2.28704,-2.03502 4.59002,-4.65136 z"
     id="path957-7"
     inkscape:connector-curvature="0"
     sodipodi:nodetypes="ccccccscsscsscscccccsccscscccsscsscscsscssccccc" />
  <path
     style="opacity:1;fill:#ffffff;fill-opacity:1;stroke:none;stroke-width:6.46290016;stroke-linecap:butt;stroke-linejoin:round;stroke-miterlimit:4;stroke-dasharray:none;stroke-opacity:1;paint-order:stroke markers fill"
     d="m 103.12843,49.867295 25.78752,-0.93288 c 0.45631,4.975367 5.15943,11.720238 1.36894,14.9261 -4.75608,1.332095 -6.99289,4.262483 -25.43457,0.732978 -4.25635,-2.443713 -2.12169,-9.817465 -1.72189,-14.726198 z"
     id="rect4599"
     inkscape:connector-curvature="0"
     sodipodi:nodetypes="ccccc" />
  <path
     style="fill:#ff3e41;fill-opacity:1;fill-rule:evenodd;stroke:none;stroke-width:1.07714999px;stroke-linecap:butt;stroke-linejoin:miter;stroke-opacity:1"
     d="M 100.29261,180.42154 80.865976,155.5986 87.382361,153.85746 Z"
     id="path4932"
     inkscape:connector-curvature="0" />
  <path
     style="fill:#e5be0b;fill-opacity:1;fill-rule:evenodd;stroke:none;stroke-width:1.07714999px;stroke-linecap:butt;stroke-linejoin:miter;stroke-opacity:1"
     d="m 77.472767,155.58521 c 0.290831,-3.62126 12.383801,-7.94782 18.575706,-11.92173 l 14.416937,-1.10899 18.85296,5.82223 7.11827,-1.57239 14.50717,-6.19058 c 4.43599,-1.07146 8.87198,-1.58425 13.30797,-0.83176 4.80565,0.77119 9.61131,1.87394 14.41696,4.71324 1.14675,1.48613 3.11109,1.1327 3.32699,4.71323 -0.52668,2.42887 -23.52535,3.99265 -27.7893,4.66568 l -43.74102,3.48941 c -10.997527,-0.46209 -32.982456,1.55051 -32.992643,-1.77834 z"
     id="path4597"
     inkscape:connector-curvature="0"
     sodipodi:nodetypes="cccccccccccc" />
  <path
     style="fill:#070606;stroke-width:1.07714999"
     d="m 147.32882,159.73014 c -9.21494,-22.61123 -14.49417,-29.88432 -21.78788,-30.01674 -8.14193,-0.14782 -14.13475,-2.61961 -16.64206,-6.86414 -1.50702,-2.55117 -2.65576,-3.05504 -8.33179,-3.65463 -3.621059,-0.38252 -7.847493,-0.97436 -9.392047,-1.31521 -6.040797,-1.3331 -1.565153,19.98464 4.87343,25.78406 l -12.471341,7.04861 c -14.206426,-5.29062 -9.17681,-55.751996 1.220191,-65.008639 2.999079,-2.670137 5.259291,-7.349361 5.311319,-22.846538 0.125651,-37.426247 36.958778,-40.433138 42.295548,-7.04909 1.38311,8.65207 0.7818,9.998102 -0.11149,9.446023 -0.47506,-0.293609 -1.17534,-2.882622 -1.55615,-5.753364 -1.52239,-11.476405 -10.36306,-12.400679 -10.36306,-0.0595 0,2.963829 -0.48748,5.095512 -2.22162,5.095512 -1.63721,0 -2.08698,-2.939445 -2.08698,-5.213122 0,-13.482727 -13.28129,-11.070831 -13.50005,0.567954 -0.0497,2.639166 -0.66776,5.376062 -1.3737,6.081988 -1.759485,1.759511 -1.612728,5.755263 0.28093,7.648949 0.86044,0.860437 1.37358,1.755281 1.14032,1.988542 -0.23327,0.233261 -1.45378,5.501682 -2.712249,11.707595 -1.296903,6.395354 -3.231892,12.603394 -4.466617,14.33031 -2.621589,3.6666 -2.814126,3.43732 5.070906,6.03861 6.3537,2.09609 6.0271,2.4826 8.38991,-0.46348 4.86894,-6.07086 7.10681,-8.313166 14.7952,-10.986916 3.93938,-1.36999 12.94137,-0.64693 16.81139,0.64287 3.09474,1.03144 1.34924,-5.761548 -3.8083,-15.546244 -1.8638,-3.535934 -5.25205,-18.080199 -4.39993,-16.079704 1.19045,-4.362016 4.54642,5.502932 5.78106,10.40614 1.18225,4.695135 5.18048,12.222819 14.61423,19.312088 3.64871,2.74193 3.76936,3.06257 3.74933,9.963626 l 1.78379,24.22275 c 0.58294,8.14732 -1.80212,10.66564 -1.80212,10.66564 l -9.59135,2.99116 c 5.60967,-9.20216 5.26758,-21.17793 3.48966,-26.09464 -1.58244,-4.37617 -2.48313,-4.49855 -3.86811,-0.52561 -0.58508,1.67838 -2.90401,4.78773 -5.15315,6.90967 -4.66199,4.39831 -4.3132,5.74557 7.80437,30.14461 6.65041,13.39078 6.46689,12.67447 3.24721,12.67447 -2.02623,0 -2.96863,-1.16301 -5.0188,-6.19361 z m -19.41528,-33.7029 c 1.84241,-1.2385 -3.38653,-6.4055 -6.49251,-6.41559 -1.96459,-0.006 -6.43329,2.9628 -6.43329,4.27456 0,2.39965 10.06176,4.06628 12.9258,2.14103 z m -9.34766,-9.21508 c 5.64367,-1.92298 6.13991,-2.90706 2.61547,-5.18671 -5.25162,-6.41447 -11.57936,-2.99298 -11.57936,2.54746 0,4.9244 1.21096,5.28095 8.96389,2.63925 z m 25.96446,-3.9436 c 1.26504,-3.61904 -0.30786,-5.64611 -3.5762,-4.60878 -3.17594,1.00801 -5.50055,3.5871 -5.50055,6.10272 0,3.65644 7.72062,2.3857 9.07675,-1.49394 z m -10.10775,-4.71974 c 7.48236,-6.99887 6.27912,-9.641476 -3.92089,-9.383906 -10.41948,0.26309 -14.83205,4.129706 -8.54677,9.923266 6.0017,5.53218 5.97548,5.53331 12.46766,-0.53936 z m -4.57019,46.78799 c 1.00535,-1.00533 1.57983,-1.00533 2.58517,0 1.00534,1.00534 0.7181,1.29258 -1.29258,1.29258 -2.01069,0 -2.29792,-0.28724 -1.29259,-1.29258 z M 108.36688,64.1711 c -1.16107,-1.161069 -2.46408,-5.78871 -0.12819,-8.675194 1.95542,-1.955431 3.84637,-0.999553 4.61491,1.574112 1.9039,6.375857 -0.98739,9.627097 -4.48672,7.101082 z m 15.93446,-0.227887 c -2.44566,-0.542487 -2.40462,-8.936504 0.36027,-9.504418 3.69359,-0.613847 4.01897,5.461645 2.61015,10.218725 z"
     id="path947-6"
     inkscape:connector-curvature="0"
     sodipodi:nodetypes="ssccsccssscssssccscscssssccsscccccccssscsscscsscsscsscsscssccsccccc" />
  <path
     style="fill:#333333;stroke:#000000;stroke-width:10.77149963;stroke-linecap:butt;stroke-linejoin:round;stroke-miterlimit:4;stroke-dasharray:none;stroke-opacity:1;paint-order:stroke fill markers"
     d="m 79.626771,155.58569 -33.978612,1.18444 0.216692,21.29897 h 34.441451 z"
     id="path7066-6-2-7-6-73"
     inkscape:connector-curvature="0" />
  <path
     style="fill:#333333;stroke:none;stroke-width:10.77149963;stroke-linecap:butt;stroke-linejoin:miter;stroke-miterlimit:4;stroke-dasharray:none;stroke-opacity:1;paint-order:stroke fill markers"
     d="m 79.626771,155.58569 -33.978612,1.18444 0.277702,27.08865 h 34.55716 z"
     id="path7066-6-2-7-6-5"
     inkscape:connector-curvature="0" />
  <path
     inkscape:connector-curvature="0"
     id="path7128-4-90-8-5-6"
     d="m 79.626729,155.5859 -30.524453,6.15765 -3.45352,-4.97338 z"
     style="fill:#4d4d4d;stroke:none;stroke-width:0.61893511px;stroke-linecap:butt;stroke-linejoin:miter;stroke-opacity:1" />
  <path
     style="fill:#666666;stroke:none;stroke-width:0.61893511px;stroke-linecap:butt;stroke-linejoin:miter;stroke-opacity:1"
     d="m 45.648159,156.77013 0.216692,21.29897 h 2.274217 l 0.963544,-16.32556 z"
     id="path7130-9-61-0-7-1"
     inkscape:connector-curvature="0" />
  <path
     style="fill:#1a1a1a;stroke:none;stroke-width:0.61893511px;stroke-linecap:butt;stroke-linejoin:miter;stroke-opacity:1"
     d="M 79.626771,155.58569 76.86447,178.0691 h 3.441832 z"
     id="path7134-6-3-6-3-2"
     inkscape:connector-curvature="0" />
  <path
     style="fill:#1a1a1a;stroke:none;stroke-width:0.61893511px;stroke-linecap:butt;stroke-linejoin:miter;stroke-opacity:1"
     d="m 79.626771,155.58569 -3.507049,28.54027 h 4.369612 z"
     id="path7134-6-3-6-3-8"
     inkscape:connector-curvature="0" />
  <path
     style="fill:#666666;stroke:none;stroke-width:0.61893511px;stroke-linecap:butt;stroke-linejoin:miter;stroke-opacity:1"
     d="m 45.648159,156.77013 0.279806,27.35794 h 1.853455 l 1.321192,-22.38453 z"
     id="path7130-9-61-0-7-4"
     inkscape:connector-curvature="0" />
  <path
     style="fill:#9d0003;fill-opacity:1;fill-rule:evenodd;stroke:none;stroke-width:1.07714999px;stroke-linecap:butt;stroke-linejoin:miter;stroke-opacity:1"
     d="m 242.75464,181.50079 -3.7481,1.11257 4.14326,6.2569 5.92772,3.86824 z"
     id="path4930"
     inkscape:connector-curvature="0"
     sodipodi:nodetypes="ccccc" />
  <path
     inkscape:connector-curvature="0"
     id="path7130-9-61-0-7-93-3"
     d="m 40.933433,114.59102 9.203144,-6.15451 -18.609723,1.73033 z"
     style="fill:#666666;stroke:none;stroke-width:0.61893511px;stroke-linecap:butt;stroke-linejoin:miter;stroke-opacity:1"
     sodipodi:nodetypes="cccc" />
  <path
     inkscape:connector-curvature="0"
     id="path7130-9-61-0-7-93-3-6"
     d="m 39.754566,93.287454 12.977514,2.61274 15.083942,9.499596 z"
     style="fill:#a3a3a3;fill-opacity:1;stroke:none;stroke-width:0.60477602px;stroke-linecap:butt;stroke-linejoin:miter;stroke-opacity:1"
     sodipodi:nodetypes="cccc" />
  <path
     style="fill:#e5be0b;stroke-width:1.07714999"
     d="m 101.00097,70.592841 c 2.72629,-12.095173 33.15222,-9.547299 31.16656,-0.644273 0,0 -9.48407,17.728711 -31.16656,0.644273 z"
     id="path955-5"
     inkscape:connector-curvature="0"
     sodipodi:nodetypes="ccc" />
  <path
     style="fill:none;fill-rule:evenodd;stroke:#b99200;stroke-width:1.07714999px;stroke-linecap:round;stroke-linejoin:round;stroke-opacity:1;paint-order:normal"
     d="m 101.61488,70.50514 c 14.29122,3.054368 22.56465,1.490956 30.11414,-1.170476"
     id="path4928"
     inkscape:connector-curvature="0"
     sodipodi:nodetypes="cc" />
  <rect
     style="opacity:1;fill:#000000;fill-opacity:1;stroke:none;stroke-width:10.37090397;stroke-linecap:round;stroke-linejoin:round;stroke-miterlimit:4;stroke-dasharray:none;stroke-opacity:1;paint-order:normal"
     id="rect5268"
     width="7.7176538"
     height="12.979691"
     x="84.391327"
     y="170.87909" />
</svg>
