<?xml version="1.0" encoding="UTF-8" standalone="no"?>
<!-- Created with Inkscape (http://www.inkscape.org/) -->

<svg
   xmlns:dc="http://purl.org/dc/elements/1.1/"
   xmlns:cc="http://creativecommons.org/ns#"
   xmlns:rdf="http://www.w3.org/1999/02/22-rdf-syntax-ns#"
   xmlns:svg="http://www.w3.org/2000/svg"
   xmlns="http://www.w3.org/2000/svg"
   xmlns:sodipodi="http://sodipodi.sourceforge.net/DTD/sodipodi-0.dtd"
   xmlns:inkscape="http://www.inkscape.org/namespaces/inkscape"
   width="512"
   height="512"
   viewBox="0 0 135.46666 135.46667"
   version="1.1"
   id="svg5383"
   inkscape:version="0.92.3 (2405546, 2018-03-11)"
   sodipodi:docname="iconsmall.svg"
   inkscape:export-filename="/home/qwerty/STK/media-repo/vector_art/iconsmall.png"
   inkscape:export-xdpi="96"
   inkscape:export-ydpi="96">
  <defs
     id="defs5377" />
  <sodipodi:namedview
     id="base"
     pagecolor="#ffffff"
     bordercolor="#666666"
     borderopacity="1.0"
     inkscape:pageopacity="0.0"
     inkscape:pageshadow="2"
     inkscape:zoom="1"
     inkscape:cx="263.67797"
     inkscape:cy="262.25967"
     inkscape:document-units="mm"
     inkscape:current-layer="layer1"
     showgrid="false"
     units="px"
     inkscape:measure-start="0,0"
     inkscape:measure-end="0,0"
     inkscape:window-width="1366"
     inkscape:window-height="707"
     inkscape:window-x="0"
     inkscape:window-y="29"
     inkscape:window-maximized="1" />
  <metadata
     id="metadata5380">
    <rdf:RDF>
      <cc:Work
         rdf:about="">
        <dc:format>image/svg+xml</dc:format>
        <dc:type
           rdf:resource="http://purl.org/dc/dcmitype/StillImage" />
        <dc:title></dc:title>
      </cc:Work>
    </rdf:RDF>
  </metadata>
  <g
     inkscape:label="Layer 1"
     inkscape:groupmode="layer"
     id="layer1"
     transform="translate(0,-161.53332)">
    <rect
       style="opacity:1;fill:#000000;fill-opacity:1;stroke:#000000;stroke-width:0.52916664;stroke-miterlimit:4;stroke-dasharray:none;stroke-opacity:1"
       id="rect6002"
       width="4.2623124"
       height="4.3313866"
       x="25.391241"
       y="199.31136" />
    <g
       id="g3215"
       transform="matrix(1.0583333,0,0,1.0583333,1052.2555,-349.35688)">
      <rect
         ry="0"
         rx="0"
         y="482.73087"
         x="-994.25714"
         height="128"
         width="128"
         id="rect3168"
         style="display:inline;overflow:visible;visibility:visible;fill:none;stroke:none;stroke-width:8;marker:none;enable-background:accumulate" />
      <g
         id="g2740"
         transform="matrix(1.307541,0,0,1.307541,-1185.5136,154.41825)">
        <path
           id="path2742"
           d="m 193.0625,255.09375 c -2.25162,0.0229 -4.46486,0.22615 -6.625,0.59375 -18.3444,2.20349 -33.28407,16.31711 -35.84375,35.9375 -3.16669,24.27319 13.80449,47.81089 37.875,52.53125 5.23281,1.02618 10.37751,1.07586 15.25,0.28125 18.47308,-2.08949 33.55206,-16.24678 36.125,-35.96875 3.16668,-24.27319 -13.80449,-47.8109 -37.875,-52.53125 -3.00881,-0.59005 -5.9919,-0.87339 -8.90625,-0.84375 z m 0.125,8.59375 c 2.39421,-0.008 4.82351,0.23521 7.21875,0.71875 11.92298,2.40697 23.33484,11.25626 28.9375,30.25 -0.0221,0.16966 -2.76091,3.11547 -3.03125,3.40625 l -10.30228,-1.39233 c -5.44565,-22.18042 -30.72593,-23.37496 -39.37963,-9.82051 l -9.84934,-2.97466 c -0.24838,-0.7426 -1.63632,-4.94877 -1.6875,-4.875 4.12134,-7.38161 13.45674,-13.3212 24,-15.0625 1.36082,-0.15273 2.71001,-0.24559 4.09375,-0.25 z m -23.28125,24.40625 c 0.6149,0.3546 1.00116,1.08505 0.90625,1.8125 -0.045,0.3453 -0.19294,0.64362 -0.40625,0.875 -0.6149,-0.35461 -0.9699,-1.08505 -0.875,-1.8125 0.0451,-0.34531 0.16169,-0.64362 0.375,-0.875 z m -5.875,3.0625 9.22392,4.83661 c -0.81903,8.35615 2.85977,18.68642 13.09581,23.82102 L 185.84375,331.5 182.25,333.03125 c -3.65733,-1.23618 -22.33837,-9.00858 -22.125,-39.46875 z m 57.75,9.21875 c 0.42002,0.24957 0.76325,0.67417 0.875,1.1875 0.11932,0.54813 -0.0467,1.06555 -0.375,1.4375 -0.42382,-0.24896 -0.76256,-0.67098 -0.875,-1.1875 -0.12009,-0.55162 0.0423,-1.06521 0.375,-1.4375 z m 4.46875,5.125 3.25,4.53125 c 0,0 -5.65121,23.38932 -25.40625,26.90625 -1.83029,0.18969 -3.75139,0.23641 -5.8125,0.0625 0,-10e-6 -3.37037,-3.44772 -3.875,-3.96875 l 2.6768,-10.86854 c 14.0768,-1.40302 17.5331,-11.04416 19.01206,-16.05745 z m -37.71875,12.46875 -0.125,2.71875 c -0.14242,-0.33367 -0.23056,-0.68529 -0.25,-1.0625 -0.0311,-0.60267 0.0977,-1.19018 0.375,-1.65625 z m 7.4375,1 c 0.0255,0.13565 0.0553,0.26556 0.0625,0.40625 0.0403,0.78315 -0.22952,1.50256 -0.6875,2.03125 z m -5.21875,6.3125 c 0.51151,0.2991 0.87393,0.84155 0.90625,1.46875 0.0233,0.4526 -0.10735,0.88519 -0.375,1.1875 -0.51923,-0.29708 -0.90486,-0.86683 -0.9375,-1.5 -0.0233,-0.4526 0.1386,-0.85394 0.40625,-1.15625 z"
           style="fill:#000000;fill-opacity:1;fill-rule:evenodd;stroke:#000000;stroke-width:6.1183548;stroke-linecap:butt;stroke-linejoin:bevel;stroke-miterlimit:4;stroke-dasharray:none;stroke-opacity:1"
           inkscape:connector-curvature="0"
           sodipodi:nodetypes="scsscscscccccccccccccccccccccccccccccccccccccccccccccccc" />
        <g
           transform="matrix(0.7115266,0,0,0.7115266,149.68549,254.44929)"
           id="g2744">
          <g
             inkscape:label="Layer 1"
             id="g2746"
             style="display:block" />
          <g
             inkscape:label="Layer 1"
             id="g2748"
             style="display:block" />
          <g
             inkscape:label="Layer 1"
             id="g2750"
             transform="translate(143.7104,71.96754)" />
          <g
             inkscape:label="Layer 1"
             id="g2752" />
          <g
             inkscape:label="Layer 1"
             id="g2754"
             transform="translate(3.756151,-4.45415)" />
          <g
             inkscape:label="Layer 1"
             id="g2756"
             transform="translate(209.1749,41.11235)" />
          <g
             inkscape:label="Layer 1"
             id="g2758"
             transform="translate(129.7749,-2.465746)" />
          <g
             inkscape:label="Layer 1"
             id="g2760"
             transform="translate(273.4853,69.50179)" />
          <g
             inkscape:label="Layer 1"
             id="g2762"
             transform="translate(129.7749,-2.465746)" />
          <g
             inkscape:label="Layer 1"
             id="g2764"
             transform="translate(133.5311,-6.919896)" />
          <g
             inkscape:label="Layer 1"
             id="g2766"
             transform="translate(338.9498,38.6466)" />
          <g
             id="g2768"
             inkscape:label="Layer 1"
             transform="matrix(0.2477178,0.03231736,-0.03231736,0.2477178,-16.371288,-52.348365)">
            <g
               id="g2770">
              <path
                 style="fill:#dadada;fill-opacity:1;fill-rule:evenodd;stroke:none"
                 d="m 361.7963,610.47496 36.06971,2.8043 17.60569,-153.16782 -66.11704,-6.33964 z m 9.57536,-39.11072 c -0.95234,-5.19771 2.44726,-9.92719 7.58402,-10.55074 5.13674,-0.62358 10.08383,3.09268 11.03618,8.2904 0.95235,5.19771 -2.44724,9.92719 -7.58401,10.55074 -5.13675,0.62357 -10.08382,-3.09271 -11.03619,-8.2904 z m -6.1536,-39.58504 c -1.67112,-9.1205 4.27724,-17.39577 13.29076,-18.48995 9.01357,-1.09414 17.70027,5.40453 19.37138,14.52502 1.67111,9.12051 -4.30229,17.43058 -13.31582,18.52474 -9.01354,1.09418 -17.67522,-5.43931 -19.34632,-14.55981 z"
                 id="path2772"
                 inkscape:connector-curvature="0" />
              <path
                 style="fill:#dadada;fill-opacity:1;fill-rule:evenodd;stroke:none"
                 d="m 579.60733,423.12372 -5.54956,-35.99889 -155.06464,-1.45339 8.99017,66.11233 z m -40.766,-5.39978 c -4.90485,1.48486 -10.35122,-1.38722 -12.15003,-6.40721 -1.79881,-5.01997 0.72469,-10.30482 5.62952,-11.78968 4.90486,-1.48486 10.35121,1.38723 12.15003,6.4072 1.79881,5.01999 -0.72468,10.30483 -5.62952,11.78969 z m -37.60801,10.22026 c -8.6066,2.60552 -18.1362,-2.41984 -21.29261,-11.22848 -3.1564,-8.80865 1.24824,-18.08565 9.85483,-20.69116 8.6066,-2.60552 18.17631,2.44098 21.33272,11.24961 3.15639,8.80864 -1.28834,18.06451 -9.89494,20.67003 z"
                 id="path2774"
                 inkscape:connector-curvature="0" />
              <path
                 style="fill:#dadada;fill-opacity:1;fill-rule:evenodd;stroke:none"
                 d="m 200,349.5739 -7.0625,34.92295 148.5,54.94258 14.125,-63.7209 z m 37.3125,19.04452 c 5.22429,0.3344 9.46875,4.85053 9.46875,10.07482 1e-5,5.22429 -4.24446,9.19707 -9.46875,8.86268 -5.22429,-0.3344 -9.46875,-4.85053 -9.46875,-10.07482 -1e-5,-5.22429 4.24446,-9.19707 9.46875,-8.86268 z m 39.65625,3.63204 c 9.16714,0.58675 16.59375,8.48873 16.59375,17.65587 0,9.16716 -7.42661,16.14964 -16.59375,15.56288 -9.16714,-0.58675 -16.625,-8.52198 -16.625,-17.68912 0,-9.16713 7.45786,-16.11639 16.625,-15.52963 z"
                 id="path2776"
                 inkscape:connector-curvature="0" />
              <path
                 style="fill:#333333;fill-opacity:1;stroke:none"
                 d="m 384.875,169.501 c -137.7142,-8.81472 -249.5,95.81599 -249.5,233.53018 0,137.7142 111.78579,256.62385 249.5,265.43857 137.7142,8.81471 249.46873,-95.78672 249.46875,-233.50094 0,-137.7142 -111.75456,-256.65311 -249.46875,-265.46781 z m 8.5,45.32531 c 68.26489,4.75011 138.35944,45.89231 183.4375,147.77258 -2e-5,1.01017 -15.15625,22.24864 -15.15625,22.24864 l 5.03125,39.72829 22.21875,23.64091 c -2e-5,1e-5 -18.17398,169.5493 -165.65625,176.2718 0,3e-5 -26.25,-20.8677 -26.25,-20.8677 l -35.375,-4.2955 -26.25,15.5073 c 10e-6,2e-5 -133.32899,-16.62456 -156.5625,-204.98989 l 24.21875,-19.66857 7.09375,-36.92095 c 1e-5,0 -13.90371,-28.64502 -14.15625,-28.1561 24.85922,-62.33255 109.6371,-116.3781 197.40625,-110.27081 z"
                 id="path2778"
                 inkscape:connector-curvature="0" />
              <circle
                 style="fill:#333333;fill-opacity:1;stroke:none"
                 id="path2780"
                 transform="matrix(1.0009862,0.06407041,0,1.0009862,2.3046805,-18.664053)"
                 cx="376.7869"
                 cy="414.95593"
                 r="60.609154" />
              <ellipse
                 transform="matrix(0.922111,0.05902183,0,0.922111,33.400999,15.590794)"
                 id="path2782"
                 style="fill:#333333;fill-opacity:1;stroke:none"
                 cx="376.7869"
                 cy="414.95593"
                 r="60.609154" />
              <path
                 style="fill:#cccccc;fill-opacity:1;fill-rule:evenodd;stroke:none"
                 d="m 350.69334,613.51647 36.06971,2.8043 17.60569,-153.16782 -66.11704,-6.33964 z m 9.57536,-39.11072 c -0.95234,-5.19771 2.44726,-9.92719 7.58402,-10.55074 5.13674,-0.62358 10.08383,3.09268 11.03618,8.2904 0.95235,5.19771 -2.44724,9.92719 -7.58401,10.55074 -5.13675,0.62357 -10.08382,-3.09271 -11.03619,-8.2904 z"
                 id="path2784"
                 inkscape:connector-curvature="0"
                 sodipodi:nodetypes="cccccccscc" />
              <path
                 style="fill:#cccccc;fill-opacity:1;fill-rule:evenodd;stroke:none"
                 d="m 568.50437,426.16523 -5.54956,-35.99889 -155.06464,-1.45339 8.99017,66.11233 z m -40.766,-5.39978 c -4.90485,1.48486 -10.35122,-1.38722 -12.15003,-6.40721 -1.79881,-5.01997 0.72469,-10.30482 5.62952,-11.78968 4.90486,-1.48486 10.35121,1.38723 12.15003,6.4072 1.79881,5.01999 -0.72468,10.30483 -5.62952,11.78969 z"
                 id="path2786"
                 inkscape:connector-curvature="0"
                 sodipodi:nodetypes="cccccscccs" />
              <path
                 style="fill:#cccccc;fill-opacity:1;fill-rule:evenodd;stroke:none"
                 d="m 188.89704,352.61541 -7.0625,34.92295 148.5,54.94258 14.125,-63.7209 z m 37.3125,19.04452 c 5.22429,0.3344 9.46875,4.85053 9.46875,10.07482 1e-5,5.22429 -4.24446,9.19707 -9.46875,8.86268 -5.22429,-0.3344 -9.46875,-4.85053 -9.46875,-10.07482 -1e-5,-5.22429 4.24446,-9.19707 9.46875,-8.86268 z"
                 id="path2788"
                 inkscape:connector-curvature="0"
                 sodipodi:nodetypes="cccccccccc" />
              <path
                 style="fill:#666666;fill-opacity:1;stroke:none"
                 d="m 373.77204,172.54251 c -137.7142,-8.81472 -249.5,95.81599 -249.5,233.53018 0,137.7142 111.78579,256.62385 249.5,265.43857 137.7142,8.81471 249.46873,-95.78672 249.46875,-233.50094 0,-137.7142 -111.75456,-256.65311 -249.46875,-265.46781 z m 8.5,45.32531 c 68.26489,4.75011 138.35944,45.89231 183.4375,147.77258 -2e-5,1.01017 -15.15625,22.24864 -15.15625,22.24864 l 5.03125,39.72829 22.21875,23.64091 c -2e-5,10e-6 -18.17398,169.5493 -165.65625,176.2718 0,3e-5 -26.25,-20.8677 -26.25,-20.8677 l -35.375,-4.2955 -26.25,15.5073 c 10e-6,2e-5 -133.32899,-16.62456 -156.5625,-204.98989 l 24.21875,-19.66857 7.09375,-36.92095 c 1e-5,0 -13.90371,-28.64502 -14.15625,-28.1561 24.85922,-62.33255 109.6371,-116.3781 197.40625,-110.27081 z"
                 id="path2790"
                 inkscape:connector-curvature="0" />
              <ellipse
                 style="fill:#666666;fill-opacity:1;stroke:none;stroke-width:2.03304124"
                 id="path2792"
                 transform="matrix(0.99795819,0.06387052,-4.1149118e-6,1,0,0)"
                 cx="377.91891"
                 cy="396.63297"
                 rx="123.34885"
                 ry="123.09315" />
            </g>
          </g>
        </g>
        <g
           id="g2794">
          <ellipse
             transform="matrix(-0.99999999,-1.0883205e-4,0.01135991,0.99993547,0,0)"
             id="path2796"
             style="display:inline;overflow:visible;visibility:visible;fill:#ffffff;fill-opacity:1;fill-rule:evenodd;stroke:none;stroke-width:1.53755414;marker:none;enable-background:accumulate"
             cx="-196.59731"
             cy="296.25659"
             rx="8.7181005"
             ry="11.712324" />
          <ellipse
             style="display:inline;overflow:visible;visibility:visible;fill:#ffffff;fill-opacity:1;fill-rule:evenodd;stroke:none;stroke-width:1.1091398;marker:none;enable-background:accumulate"
             id="path2798"
             transform="matrix(-0.99999999,-1.0882477e-4,0.01135991,0.99993547,0,0)"
             inkscape:transform-center-x="9.8841569"
             inkscape:transform-center-y="3.4377725"
             cx="-183.09332"
             cy="296.51016"
             rx="6.288929"
             ry="8.4488726" />
          <ellipse
             transform="matrix(0.99999999,-1.088275e-4,-0.01135992,0.99993547,0,0)"
             id="path2800"
             style="display:inline;overflow:visible;visibility:visible;fill:#000000;fill-opacity:1;fill-rule:evenodd;stroke:none;stroke-width:0.55546725;marker:none;enable-background:accumulate"
             cx="200.73662"
             cy="298.8989"
             rx="3.1495552"
             ry="4.2312722" />
          <ellipse
             style="display:inline;overflow:visible;visibility:visible;fill:#000000;fill-opacity:1;fill-rule:evenodd;stroke:none;stroke-width:0.43264756;marker:none;enable-background:accumulate"
             id="path2802"
             transform="matrix(0.99999999,-1.0882802e-4,-0.01135991,0.99993547,0,0)"
             cx="190.45871"
             cy="298.49704"
             rx="2.4531529"
             ry="3.2956905" />
          <path
             style="fill:#ffb201;fill-opacity:1;fill-rule:evenodd;stroke:none;stroke-width:2.0289638"
             d="m 183.98675,305.28107 2.09383,13.42803 14.87688,-10.61224 z"
             id="path2804"
             sodipodi:nodetypes="cccc"
             inkscape:connector-curvature="0" />
        </g>
      </g>
    </g>
  </g>
</svg>
