/* XPM */
static char * supertuxkart_64_xpm[] = {
"64 64 560 2",
"  	c None",
". 	c #000000",
"+ 	c #010101",
"@ 	c #AFAFAF",
"# 	c #FFFFFF",
"$ 	c #0B0B0B",
"% 	c #696969",
"& 	c #7A7A7A",
"* 	c #C4C4C4",
"= 	c #454545",
"- 	c #939392",
"; 	c #040405",
"> 	c #888887",
", 	c #D1D1D1",
"' 	c #8E8E8E",
") 	c #676768",
"! 	c #6D7490",
"~ 	c #080000",
"{ 	c #484D63",
"] 	c #848487",
"^ 	c #282829",
"/ 	c #565963",
"( 	c #BDBCB4",
"_ 	c #927600",
": 	c #FACA00",
"< 	c #FFDC01",
"[ 	c #CFA400",
"} 	c #BFBA7E",
"| 	c #262315",
"1 	c #181300",
"2 	c #FFE300",
"3 	c #EABC00",
"4 	c #ECC200",
"5 	c #E7BE01",
"6 	c #E6BD00",
"7 	c #EAC001",
"8 	c #ECBE00",
"9 	c #EAC500",
"0 	c #980000",
"a 	c #850303",
"b 	c #8F0000",
"c 	c #920000",
"d 	c #950000",
"e 	c #8A0002",
"f 	c #A40001",
"g 	c #820000",
"h 	c #860000",
"i 	c #770001",
"j 	c #860001",
"k 	c #900000",
"l 	c #700000",
"m 	c #AA0000",
"n 	c #050200",
"o 	c #FFDB00",
"p 	c #D2AB00",
"q 	c #D7B000",
"r 	c #D9B100",
"s 	c #D5AE00",
"t 	c #D4AD00",
"u 	c #D5AD01",
"v 	c #E6B900",
"w 	c #705A69",
"x 	c #C84C4A",
"y 	c #AE0000",
"z 	c #B90000",
"A 	c #B20000",
"B 	c #AD0000",
"C 	c #A50000",
"D 	c #CF8181",
"E 	c #EBDBDB",
"F 	c #6F0000",
"G 	c #8B0101",
"H 	c #8A0000",
"I 	c #970000",
"J 	c #660000",
"K 	c #A70000",
"L 	c #9A0000",
"M 	c #8C0000",
"N 	c #9F0000",
"O 	c #A20000",
"P 	c #A10000",
"Q 	c #A90000",
"R 	c #AB0000",
"S 	c #010000",
"T 	c #81763E",
"U 	c #F3CE2D",
"V 	c #ECBC00",
"W 	c #EBC000",
"X 	c #ECC100",
"Y 	c #EDC300",
"Z 	c #ECBB00",
"` 	c #E0D9AA",
" .	c #241918",
"..	c #FFF8F7",
"+.	c #BC0202",
"@.	c #CA0000",
"#.	c #B70000",
"$.	c #B80000",
"%.	c #C32D2B",
"&.	c #AC0303",
"*.	c #B40000",
"=.	c #B00002",
"-.	c #AE0004",
";.	c #AC0000",
">.	c #A60001",
",.	c #A30106",
"'.	c #710000",
").	c #BDBDBC",
"!.	c #FEFFFF",
"~.	c #F5ECB8",
"{.	c #E8C115",
"].	c #E7B700",
"^.	c #E9C019",
"/.	c #F8F7E1",
"(.	c #303030",
"_.	c #F8F7F6",
":.	c #FBFBFC",
"<.	c #FDFFFF",
"[.	c #FBFBFA",
"}.	c #FCFCFD",
"|.	c #D9D9D9",
"1.	c #1B1A19",
"2.	c #2E2D2B",
"3.	c #462C1D",
"4.	c #F7F7F7",
"5.	c #FAFAFA",
"6.	c #FAFAF8",
"7.	c #F9FAF7",
"8.	c #F9FAFB",
"9.	c #434343",
"0.	c #202120",
"a.	c #262726",
"b.	c #8C5E47",
"c.	c #4F4F4F",
"d.	c #FBFBFB",
"e.	c #FCFCFC",
"f.	c #FCFCFB",
"g.	c #A8A8A8",
"h.	c #212321",
"i.	c #4E4038",
"j.	c #6A6A6A",
"k.	c #F9F9F9",
"l.	c #F6F6F6",
"m.	c #ECEBEB",
"n.	c #EEECEC",
"o.	c #FEFDFD",
"p.	c #020202",
"q.	c #646764",
"r.	c #525552",
"s.	c #2F312F",
"t.	c #010301",
"u.	c #1E1F1E",
"v.	c #272827",
"w.	c #242623",
"x.	c #F4E2D9",
"y.	c #030303",
"z.	c #7E7C7C",
"A.	c #B1B0AF",
"B.	c #D6D4D5",
"C.	c #EFEFEF",
"D.	c #777676",
"E.	c #090909",
"F.	c #292827",
"G.	c #030302",
"H.	c #575857",
"I.	c #6E706E",
"J.	c #E1E2E1",
"K.	c #626462",
"L.	c #0C0C0C",
"M.	c #F0C9B3",
"N.	c #030202",
"O.	c #EEEEEE",
"P.	c #FDFDFD",
"Q.	c #232323",
"R.	c #2C2C2C",
"S.	c #F4F4F4",
"T.	c #6B6B6B",
"U.	c #0D0D0C",
"V.	c #2A2B2A",
"W.	c #676967",
"X.	c #C4C6C4",
"Y.	c #4B4D4B",
"Z.	c #181A18",
"`.	c #293039",
" +	c #82BCDF",
".+	c #D9B39C",
"++	c #020101",
"@+	c #818182",
"#+	c #202020",
"$+	c #C5C5C5",
"%+	c #F8F8F8",
"&+	c #F2F2F2",
"*+	c #6D6F6D",
"=+	c #040404",
"-+	c #070807",
";+	c #181918",
">+	c #262626",
",+	c #141514",
"'+	c #080B08",
")+	c #42484F",
"!+	c #C0A291",
"~+	c #010100",
"{+	c #3A3A3A",
"]+	c #5A5A5A",
"^+	c #050505",
"/+	c #474747",
"(+	c #B5B5B5",
"_+	c #595959",
":+	c #727272",
"<+	c #404240",
"[+	c #040604",
"}+	c #020302",
"|+	c #9A8273",
"1+	c #D3D3D3",
"2+	c #1C1C1C",
"3+	c #7B7B7B",
"4+	c #515151",
"5+	c #10100F",
"6+	c #6F5447",
"7+	c #CACACA",
"8+	c #707070",
"9+	c #0A0A0A",
"0+	c #272727",
"a+	c #8C8C8C",
"b+	c #0D0D0D",
"c+	c #273331",
"d+	c #220807",
"e+	c #1F0000",
"f+	c #1E1309",
"g+	c #BEBEBE",
"h+	c #818181",
"i+	c #393939",
"j+	c #616161",
"k+	c #414141",
"l+	c #595858",
"m+	c #BB0000",
"n+	c #CF0000",
"o+	c #CB0000",
"p+	c #EB0000",
"q+	c #020000",
"r+	c #2E2E2E",
"s+	c #F8F9F9",
"t+	c #F0F0F0",
"u+	c #575757",
"v+	c #8A8A8A",
"w+	c #ECECEC",
"x+	c #6A7373",
"y+	c #8E0000",
"z+	c #6A0000",
"A+	c #380000",
"B+	c #780000",
"C+	c #AF0000",
"D+	c #D50000",
"E+	c #FAFAFB",
"F+	c #E1E1E1",
"G+	c #151515",
"H+	c #D7D7D7",
"I+	c #F9FAFA",
"J+	c #6F7474",
"K+	c #680000",
"L+	c #9E0000",
"M+	c #A30000",
"N+	c #390000",
"O+	c #BE0000",
"P+	c #B60000",
"Q+	c #D80000",
"R+	c #D4D4D4",
"S+	c #E6E6E6",
"T+	c #656565",
"U+	c #5B6060",
"V+	c #6E0000",
"W+	c #B00000",
"X+	c #A40000",
"Y+	c #850000",
"Z+	c #220000",
"`+	c #1E0000",
" @	c #BC0000",
".@	c #BA0000",
"+@	c #D10000",
"@@	c #1A0000",
"#@	c #F7F8F8",
"$@	c #424242",
"%@	c #14191A",
"&@	c #6D0001",
"*@	c #B50000",
"=@	c #9D0000",
"-@	c #540000",
";@	c #131313",
">@	c #464646",
",@	c #060606",
"'@	c #BD0000",
")@	c #C30000",
"!@	c #560000",
"~@	c #242424",
"{@	c #FBFCFF",
"]@	c #FEFEFE",
"^@	c #E5E5E5",
"/@	c #9E9E9D",
"(@	c #ACB4D2",
"_@	c #A95A01",
":@	c #D97100",
"<@	c #D97B00",
"[@	c #C31400",
"}@	c #730000",
"|@	c #190000",
"1@	c #030000",
"2@	c #070706",
"3@	c #313131",
"4@	c #300000",
"5@	c #800000",
"6@	c #313545",
"7@	c #FEEFA5",
"8@	c #EFD26A",
"9@	c #EBC62E",
"0@	c #EDCD4F",
"a@	c #F6E591",
"b@	c #FCFDFF",
"c@	c #FDFDFC",
"d@	c #494D59",
"e@	c #121318",
"f@	c #FFDF00",
"g@	c #EFC600",
"h@	c #E9BF00",
"i@	c #E9C000",
"j@	c #EEDA00",
"k@	c #EABF00",
"l@	c #D05C00",
"m@	c #830100",
"n@	c #A80000",
"o@	c #840000",
"p@	c #1F1E1E",
"q@	c #4A0000",
"r@	c #A60000",
"s@	c #DB0000",
"t@	c #B49500",
"u@	c #FFD800",
"v@	c #E9BD00",
"w@	c #E8BE00",
"x@	c #E8BA00",
"y@	c #E6B500",
"z@	c #EDCF59",
"A@	c #FBF1BA",
"B@	c #FCFFFF",
"C@	c #F5E9B0",
"D@	c #CCAA11",
"E@	c #BF9C01",
"F@	c #E4BA00",
"G@	c #E9BC00",
"H@	c #E7BC00",
"I@	c #EBC700",
"J@	c #F4DF00",
"K@	c #9E0200",
"L@	c #2B2D2D",
"M@	c #590000",
"N@	c #500000",
"O@	c #8B7600",
"P@	c #FFDD00",
"Q@	c #E6BC00",
"R@	c #E8BF00",
"S@	c #EABF03",
"T@	c #E8BD00",
"U@	c #EFBE00",
"V@	c #A98800",
"W@	c #EFBF00",
"X@	c #211700",
"Y@	c #413300",
"Z@	c #FFD700",
"`@	c #EAC200",
" #	c #EFCC00",
".#	c #F2D600",
"+#	c #F1D300",
"@#	c #E8B300",
"##	c #E19B00",
"$#	c #AD1600",
"%#	c #323232",
"&#	c #5B0000",
"*#	c #F6BB00",
"=#	c #EFC800",
"-#	c #E8C200",
";#	c #EDC500",
">#	c #ECC700",
",#	c #EECA00",
"'#	c #EFCD00",
")#	c #EDCB00",
"!#	c #EFCB00",
"~#	c #F0CF00",
"{#	c #F2D700",
"]#	c #FCE201",
"^#	c #4D4702",
"/#	c #FFED00",
"(#	c #AB8300",
"_#	c #C36800",
":#	c #B84C00",
"<#	c #A82400",
"[#	c #C20000",
"}#	c #490000",
"|#	c #151617",
"1#	c #C70000",
"2#	c #9C0000",
"3#	c #B10000",
"4#	c #BF0000",
"5#	c #E45200",
"6#	c #ED6E00",
"7#	c #DA6B00",
"8#	c #BF6600",
"9#	c #C05E00",
"0#	c #B75200",
"a#	c #B64900",
"b#	c #B95100",
"c#	c #B95000",
"d#	c #B43F00",
"e#	c #AF2E00",
"f#	c #AA1C00",
"g#	c #960000",
"h#	c #940000",
"i#	c #440000",
"j#	c #A00000",
"k#	c #A20200",
"l#	c #A80200",
"m#	c #A00100",
"n#	c #B30000",
"o#	c #640000",
"p#	c #430000",
"q#	c #290000",
"r#	c #0E0000",
"s#	c #090000",
"t#	c #C10000",
"u#	c #9B0000",
"v#	c #A20100",
"w#	c #A30200",
"x#	c #A50100",
"y#	c #310000",
"z#	c #080808",
"A#	c #2D2D2D",
"B#	c #520000",
"C#	c #230000",
"D#	c #570000",
"E#	c #810000",
"F#	c #5B5B5B",
"G#	c #C3C3C3",
"H#	c #990000",
"I#	c #5D6565",
"J#	c #E6EDED",
"K#	c #050707",
"L#	c #000101",
"M#	c #5A0000",
"N#	c #750808",
"O#	c #984545",
"P#	c #551616",
"Q#	c #777777",
"R#	c #A1A1A1",
"S#	c #3B0000",
"T#	c #7A0000",
"U#	c #5C0000",
"V#	c #050000",
"W#	c #B2B2B2",
"X#	c #C50000",
"Y#	c #1C0000",
"Z#	c #4A4A4A",
"`#	c #A70101",
" $	c #C00000",
".$	c #A20101",
"+$	c #212120",
"@$	c #150000",
"#$	c #760000",
"$$	c #A10202",
"%$	c #A70202",
"&$	c #2F0000",
"*$	c #AD0202",
"=$	c #B20808",
"-$	c #C34F4F",
";$	c #DC7E7E",
">$	c #610000",
",$	c #B01515",
"'$	c #BE4E4E",
")$	c #CC7777",
"!$	c #DD9C9C",
"~$	c #ECE1E1",
"{$	c #F8FFFF",
"]$	c #FBFFFF",
"^$	c #F9FFFF",
"/$	c #738484",
"($	c #DFA0A0",
"_$	c #AD0303",
":$	c #B92E2E",
"<$	c #C15252",
"[$	c #C87474",
"}$	c #D38383",
"|$	c #DDAAAA",
"1$	c #E8D8D8",
"2$	c #F3FFFF",
"3$	c #F6FFFF",
"4$	c #F5FFFF",
"5$	c #F1FCFC",
"6$	c #EEF1F1",
"7$	c #ECEDED",
"8$	c #F6F5F4",
"9$	c #F5F2F1",
"0$	c #585757",
"a$	c #EEF9F9",
"b$	c #B91A1A",
"c$	c #B52323",
"d$	c #BB4040",
"e$	c #C46161",
"f$	c #CA7373",
"g$	c #D17D7D",
"h$	c #DA9C9C",
"i$	c #E4C2C2",
"j$	c #EBE5E5",
"k$	c #EFFBFB",
"l$	c #F1FFFF",
"m$	c #F2FFFF",
"n$	c #F0FCFC",
"o$	c #F0F5F5",
"p$	c #F0F2F2",
"q$	c #F3F2F1",
"r$	c #F5F2F0",
"s$	c #F4F1F1",
"t$	c #F0ECEC",
"u$	c #424040",
"v$	c #CE7878",
"w$	c #CA7272",
"x$	c #CD7C7C",
"y$	c #D17F7F",
"z$	c #D68181",
"A$	c #D99393",
"B$	c #DEA6A6",
"C$	c #E3BABA",
"D$	c #E5CBCB",
"E$	c #EADFDF",
"F$	c #EDEDED",
"G$	c #EFF8F8",
"H$	c #F4FFFF",
"I$	c #EFFDFD",
"J$	c #EEF7F7",
"K$	c #EDF2F1",
"L$	c #EDEFF0",
"M$	c #EAE8E8",
"N$	c #F2EFEE",
"O$	c #F2EEEC",
"P$	c #F6F4F3",
"Q$	c #EFEDEE",
"R$	c #F1EFEF",
"S$	c #F5FAFA",
"T$	c #ECF2F2",
"U$	c #EAEDED",
"V$	c #E9ECEC",
"W$	c #E9EBEB",
"X$	c #E8E9E9",
"Y$	c #EBEAEA",
"Z$	c #ECEBEA",
"`$	c #EAE9E8",
" %	c #EFEDEC",
".%	c #F5F1EE",
"+%	c #F0ECEA",
"@%	c #F4F2F1",
"#%	c #F1F0F1",
"$%	c #E7E6E7",
"%%	c #F3F4F4",
"&%	c #F1F1F2",
"                                                                                                                                ",
"                                                                                                                                ",
"                                                                                                                                ",
"                                                                                                                                ",
"                                                                                                                                ",
"                                                                                                                                ",
"                                                                                                                                ",
"                                                                                                                                ",
"                                                                                                                                ",
"                                                      . . . . .                                                                 ",
"                                                    . . . . . . .                                                               ",
"                                                  . . . . . . . . .                                                             ",
"                                                  . . . . . . + . .                                                             ",
"                                                . . . . @ # $ . # % .                                                           ",
"                                                . . . & * = - ; > , .                                                           ",
"                                                . . . ' ) . ! ~ { ] ^                                                           ",
"                                                . . . / ( _ : < [ } |                                                           ",
"                                                . . 1 2 3 4 5 6 7 8 9                                                           ",
"                  0 a b c d e f g c h i j k l m . . n o p q r s t u v w x y z                                                   ",
"          A B C D E F G H I J K L M N C O P Q R . S . T U V W X Y Z `  ...A +.                                                  ",
"          @.#.$.%.# C &.*.A B =.-.A ;.>.,.R   '.. . . ).!.~.{.].^./.# (.                                                        ",
"                        . . .                   . . . # _.:.<.!.<.[.}.|.                                                        ",
"                          1.2.              3.. . . . # 4.5.6.7.6.8.5.# 9.                                                      ",
"                          0.0.a.          b.. S . . c.# 5.d.d.e.e.f.e.# g..                                                     ",
"                            a.h.          i.. . . . j.5.4.k.l.m.# # n.# o.. p..                                                 ",
"                    q.r.s.t.u.v.w.      x.. y.. . . z.A.B.C.# D.. . E.. F.G.. . .                                               ",
"                    H.I.J.K.L.y.u.      M.. p.. . N.O.P.# P.Q.R.S.# # # T.. . . .                                               ",
"                    U.V.W.X.Y.Z.. . `. +.+. ++. . @+# # # #+. $+# %+}.&+. . . . .                                               ",
"                  *+=+. -+;+>+#+,+'+. )+!+. ~+. . . . {+]+^+/+. (+# O.. _+:+. + .                                               ",
"                    <+. . . . [+}++ . . |+. . . . . y.. . 1+# # 2+3+. 4+# (+. . . . . . . . .                                   ",
"                    5+^+. .     . . . . 6+. . . . . . . . , 7+8+9+. . 0+a+b+' . y.. . . . . . .                                 ",
"      . . . . . . . . . .         c+d+e+f+. . Q.# g+3+h+i+. . j+k+. . . . + # l+. . . . . . . . .                               ",
"    . . . . . . . . . . . .     m+n+o+p+. q+. r+# s+# # t+. u+# # v+. . =+w+# x+y+K z+A+. . . . .                               ",
"  . . . . . . . . . . . . . B+K C+B C+D+. q+. 2+# 5.E+5.P.F+G+. . . . . H+I+# J+K+L+M+;.$.N+. . . .                             ",
"  . . . . . . . . . . . N+O+C N P+*.P+Q+. q+. . k.d.[.5.E+5.# # R+&+S+. T+# # U+V+W+L+N X+Y+Z+. . .                             ",
"  . b+. . . . . . . . `+ @P N L+K .@$.+@@@. . . (+# 5.d.d.d.%+%+4.#@# $@. # # %@&@*@.@K =@*@I -@. .                             ",
"  ;@>@,@. . . . . . . #.P M+P N N '@$.)@!@. . . ~@# {@!.# <.{@d.%+d.]@^@. /@(@. _@:@<@[@L+}@|@l l 1@                            ",
"  2@3@=+. . . . . . 4@B M+N X+P =@.@$..@5@. . . . 6@7@8@9@0@a@# <.b@c@# d@e@f@o g@h@i@j@k@l@z+m@n@o@                            ",
"  p@. . . . . . . . q@K X+N r@P P M+ @#.s@. . n t@u@v@w@k@i@x@y@z@A@B@C@D@. E@F@k@h@h@G@H@I@J@N K@O                             ",
"  L@. . . . . . . . M@O X+P N P M+P O .@)@N@O@P@w@Q@k@h@k@h@R@S@T@U@V@W@o X@Y@Z@`@ #.#J@+#@###$#B #.)@            . .           ",
"  %#. . . . . . . . &#Q N O L+N P M+O L+P *#=#-#;#>#,#'#)#!#~#+#{#]#^#/#~#(#. <@_#:#<#L+0 I C W+[#}#. . . . . . . . . .         ",
"  |#. . . . . . . . q+1#2#n@M+C m 3#*@4#)@5#6#7#8#9#0#a#b#c#d#e#f#g#I L h##.~+i#n@O j#k#l#m#N n#M+. 1@. . . . . . . . . .       ",
"  . . . . . . . . . . N ;.c V+z+o#&#p#q#r#. . s#t#u#O O P P X+C P v#2#w#w#x#K+. z L+j#N X+O j#y y#. . z#A#. . . . . . . . .     ",
"  . . . . . . . . . . B#0 . . . . . . . S q+q+. C#$.P P P j#P O X+M+O M+P N #.. D#M+O P P O P K E#. . F#G#. p.. . . . . . .     ",
"    . . . . . . . . . . . S . . . . . . . . . . . H#j#M+P O X+X+P X+C j#P N O n#;.N O M+O j#O P K N . I#J#K#L#. . . . . . . .   ",
"      . .               S . ;@. . . . . . . . . . M#P r@K X+O X+M+M+N N j#M+P O j#L+P j#O X+N O j#r@u#N#O#P#@@. . . . . . . .   ",
"                        . Q#R#. + . . . . . . . . S#*@M+r@M+j#j#j#O C j#L+O C O K L+j#O O P M+N O j#j#M+M+;.#.[#n#T#U#V#. . .   ",
"                        . W#|.. p.. . . . . . . . . @.r@X+P P j#j#O P K L+N C C M+X+N N O =@K N X+M+X+j#O P O C X+X+;.X#2#Y#.   ",
"                        . Z#j.. + . . . . . . . . q@W+u#O r@C j#j#M+X+M+j#M+2#r@K O j#0 O N N `#P C N O =@M+M+K C n@n@r@m X#k   ",
"                        y.+ . . . . . . . . . K+ $R n@m O n@X+r@M+j#P r@r@L+P O X+O m d =@.$2#K L+C =@I I L+M+n@Q n@;.;.y B ;.)@",
"                        +$. + . . . . . @$#$[#m r@;.Q ;.r@r@R Q N P O L+r@O P P M+$$O P O %$X+;.R B ;.W+A n#*@*.A n#3#3#*.n#3#m+",
"                        {+. + . . &$T#z *.Q Q B Q B m m W+K R K Q L+P O X+*$n@B R B B B y y C+C+W+W+y y B B R R R Q r@X+K =$-$;$",
"                        r+. . . . >$B R n@y n@W+B C+A R n#y n#3#3#W+3#3#C+y y ;.B B y y y C+C+B ;.;.;.Q C X+n@,$'$)$!$~${$]$^$<.",
"                        . . . . . /$($n@C+B 3#A n#R W+;.R R R ;.y y 3#C+C+W+W+B m n@r@X+C K _$:$<$[$}$|$1$2$3$4$5$6$7$8$9$9$    ",
"                          . . . . 0$# a$b$R W+W+C+B ;.R Q n@n@r@n@n@m y c$d$e$f$g$h$i$j$k$2$l$m$n$o$p$t+q$r$s$t$                ",
"                            . . . u$# n.3$v$w$x$y$z$A$B$C$D$E$F$G$2$H$2$l$I$J$K$L$w+m.M$N$O$P$Q$Q$                              ",
"                                      l.R$S$T$U$U$V$W$X$Y$Z$M$`$ %.%+%@%#%P$$%                                                  ",
"                                        5.%%&%                                                                                  ",
"                                                                                                                                ",
"                                                                                                                                ",
"                                                                                                                                ",
"                                                                                                                                ",
"                                                                                                                                ",
"                                                                                                                                "};
