<?xml version="1.0" encoding="UTF-8" standalone="no"?>
<!-- Created with Inkscape (http://www.inkscape.org/) -->

<svg
   xmlns:dc="http://purl.org/dc/elements/1.1/"
   xmlns:cc="http://creativecommons.org/ns#"
   xmlns:rdf="http://www.w3.org/1999/02/22-rdf-syntax-ns#"
   xmlns:svg="http://www.w3.org/2000/svg"
   xmlns="http://www.w3.org/2000/svg"
   xmlns:sodipodi="http://sodipodi.sourceforge.net/DTD/sodipodi-0.dtd"
   xmlns:inkscape="http://www.inkscape.org/namespaces/inkscape"
   inkscape:version="0.92.5 (2060ec1f9f, 2020-04-08)"
   sodipodi:docname="supertuxkart-uninstall.svg"
   viewBox="0 0 256 256"
   height="256"
   width="256"
   id="svg869"
   version="1.1">
  <metadata
     id="metadata875">
    <rdf:RDF>
      <cc:Work
         rdf:about="">
        <dc:format>image/svg+xml</dc:format>
        <dc:type
           rdf:resource="http://purl.org/dc/dcmitype/StillImage" />
        <dc:title></dc:title>
      </cc:Work>
    </rdf:RDF>
  </metadata>
  <defs
     id="defs873">
    <inkscape:path-effect
       effect="bspline"
       id="path-effect936"
       is_visible="true"
       weight="33.333333"
       steps="2"
       helper_size="0"
       apply_no_weight="true"
       apply_with_weight="true"
       only_selected="false" />
    <inkscape:path-effect
       effect="bspline"
       id="path-effect932"
       is_visible="true"
       weight="33.333333"
       steps="2"
       helper_size="0"
       apply_no_weight="true"
       apply_with_weight="true"
       only_selected="false" />
  </defs>
  <sodipodi:namedview
     pagecolor="#ffffff"
     bordercolor="#666666"
     borderopacity="1"
     objecttolerance="10"
     gridtolerance="10"
     guidetolerance="10"
     inkscape:pageopacity="0"
     inkscape:pageshadow="2"
     inkscape:window-width="1920"
     inkscape:window-height="1010"
     id="namedview871"
     showgrid="false"
     inkscape:zoom="1.4142136"
     inkscape:cx="-53.381091"
     inkscape:cy="31.317159"
     inkscape:window-x="0"
     inkscape:window-y="34"
     inkscape:window-maximized="1"
     inkscape:current-layer="svg869" />
  <path
     inkscape:connector-curvature="0"
     id="path7066-6-2-7-6-7-9"
     d="m 151.62591,90.254375 0.55078,54.022465 35.00452,-0.27567 -1.66179,-54.92881 z"
     style="fill:#333333;stroke:#000000;stroke-width:10.74472523;stroke-linecap:butt;stroke-linejoin:round;stroke-miterlimit:4;stroke-dasharray:none;stroke-opacity:1;paint-order:stroke fill markers" />
  <path
     inkscape:connector-curvature="0"
     id="path7128-4-90-8-5-0-2"
     d="m 185.51942,89.073049 -30.44859,6.142344 -3.44492,-4.961018 z"
     style="fill:#4d4d4d;stroke:none;stroke-width:0.61739665px;stroke-linecap:butt;stroke-linejoin:miter;stroke-opacity:1" />
  <path
     inkscape:connector-curvature="0"
     id="path7130-9-61-0-7-93-0"
     d="m 155.07083,95.215393 -2.89414,49.061447 -0.55078,-54.022465 z"
     style="fill:#666666;stroke:none;stroke-width:0.61739665px;stroke-linecap:butt;stroke-linejoin:miter;stroke-opacity:1" />
  <path
     inkscape:connector-curvature="0"
     id="path7134-6-3-6-3-6-2"
     d="m 187.18121,144.00117 -1.66179,-54.928121 -6.06694,49.386131 z"
     style="fill:#1a1a1a;stroke:none;stroke-width:0.61739665px;stroke-linecap:butt;stroke-linejoin:miter;stroke-opacity:1" />
  <path
     inkscape:connector-curvature="0"
     id="path7132-9-8-7-5-0-3"
     d="m 152.17669,144.27684 35.00452,-0.27567 -7.72873,-5.54267 z"
     style="fill:#000000;stroke:none;stroke-width:0.61739665px;stroke-linecap:butt;stroke-linejoin:miter;stroke-opacity:1" />
  <path
     inkscape:connector-curvature="0"
     id="path7066-6-2-7-6-7"
     d="m 6.3723564,99.080242 0.5508018,54.022478 35.0045168,-0.27567 -1.6618,-54.928813 z"
     style="fill:#333333;stroke:#000000;stroke-width:10.74472523;stroke-linecap:butt;stroke-linejoin:round;stroke-miterlimit:4;stroke-dasharray:none;stroke-opacity:1;paint-order:stroke fill markers" />
  <path
     inkscape:connector-curvature="0"
     id="path7128-4-90-8-5-0"
     d="M 40.265875,97.898936 9.8172919,104.04127 6.3723564,99.080242 Z"
     style="fill:#4d4d4d;stroke:none;stroke-width:0.61739665px;stroke-linecap:butt;stroke-linejoin:miter;stroke-opacity:1" />
  <path
     inkscape:connector-curvature="0"
     id="path7130-9-61-0-7-93"
     d="M 9.8172919,104.04127 6.9231582,153.10272 6.3723564,99.080242 Z"
     style="fill:#666666;stroke:none;stroke-width:0.61739665px;stroke-linecap:butt;stroke-linejoin:miter;stroke-opacity:1" />
  <path
     inkscape:connector-curvature="0"
     id="path7134-6-3-6-3-6"
     d="m 41.927675,152.82705 -1.6618,-54.928114 -6.066939,49.386124 z"
     style="fill:#1a1a1a;stroke:none;stroke-width:0.61739665px;stroke-linecap:butt;stroke-linejoin:miter;stroke-opacity:1" />
  <path
     inkscape:connector-curvature="0"
     id="path7132-9-8-7-5-0"
     d="m 6.9231582,153.10272 35.0045168,-0.27567 -7.728739,-5.54267 z"
     style="fill:#000000;stroke:none;stroke-width:0.61739665px;stroke-linecap:butt;stroke-linejoin:miter;stroke-opacity:1" />
  <path
     inkscape:connector-curvature="0"
     id="path7066-6-2-7-6-6"
     d="m 197.12261,131.55598 0.55081,50.25715 35.00451,-0.25645 -1.66179,-51.10032 z"
     style="fill:#333333;stroke:#000000;stroke-width:10.3635149;stroke-linecap:butt;stroke-linejoin:round;stroke-miterlimit:4;stroke-dasharray:none;stroke-opacity:1;paint-order:stroke fill markers" />
  <path
     inkscape:connector-curvature="0"
     id="path7128-4-90-8-5-2"
     d="m 231.01614,130.45699 -30.4486,5.71423 -3.44493,-4.61524 z"
     style="fill:#4d4d4d;stroke:none;stroke-width:0.59549206px;stroke-linecap:butt;stroke-linejoin:miter;stroke-opacity:1" />
  <path
     inkscape:connector-curvature="0"
     id="path7130-9-61-0-7-9"
     d="m 200.56754,136.17122 -2.89412,45.64191 -0.55081,-50.25715 z"
     style="fill:#666666;stroke:none;stroke-width:0.59549206px;stroke-linecap:butt;stroke-linejoin:miter;stroke-opacity:1" />
  <path
     inkscape:connector-curvature="0"
     id="path7134-6-3-6-3-1"
     d="m 232.67793,181.55668 -1.66179,-51.09969 -6.06695,45.94397 z"
     style="fill:#1a1a1a;stroke:none;stroke-width:0.59549206px;stroke-linecap:butt;stroke-linejoin:miter;stroke-opacity:1" />
  <path
     style="fill:#707070;fill-opacity:1;fill-rule:evenodd;stroke:#000000;stroke-width:6.44683552;stroke-linecap:butt;stroke-linejoin:miter;stroke-miterlimit:4;stroke-dasharray:none;stroke-opacity:1"
     d="M 41.699952,55.927513 56.221907,96.947317 69.316499,95.626289 51.19314,55.927513 Z"
     id="path971"
     inkscape:connector-curvature="0"
     sodipodi:nodetypes="ccccc" />
  <path
     style="fill:#707070;fill-opacity:1;fill-rule:evenodd;stroke:none;stroke-width:3.22341776;stroke-linecap:butt;stroke-linejoin:miter;stroke-miterlimit:4;stroke-dasharray:none;stroke-opacity:1"
     d="M 41.699952,55.927511 56.221907,96.947317 69.316499,95.626289 51.19314,55.927511 Z"
     id="path971-3"
     inkscape:connector-curvature="0"
     sodipodi:nodetypes="ccccc" />
  <path
     style="fill:#939393;fill-opacity:1;fill-rule:evenodd;stroke:none;stroke-width:1.07447255px;stroke-linecap:butt;stroke-linejoin:miter;stroke-opacity:1"
     d="M 41.699952,55.927513 64.90428,101.48656 56.221907,96.947317 Z"
     id="path4604"
     inkscape:connector-curvature="0" />
  <path
     inkscape:connector-curvature="0"
     id="path7066-6-2-7-6"
     d="m 45.853794,136.93567 0.550802,54.02246 35.004512,-0.27566 -1.6618,-54.9288 z"
     style="fill:#333333;stroke:#000000;stroke-width:10.74472523;stroke-linecap:butt;stroke-linejoin:round;stroke-miterlimit:4;stroke-dasharray:none;stroke-opacity:1;paint-order:stroke fill markers" />
  <path
     inkscape:connector-curvature="0"
     id="path7128-4-90-8-5"
     d="m 79.747308,135.75434 -30.44858,6.14235 -3.444934,-4.96102 z"
     style="fill:#4d4d4d;stroke:none;stroke-width:0.61739665px;stroke-linecap:butt;stroke-linejoin:miter;stroke-opacity:1" />
  <path
     inkscape:connector-curvature="0"
     id="path7130-9-61-0-7"
     d="m 49.298728,141.89669 -2.894132,49.06144 -0.550802,-54.02246 z"
     style="fill:#666666;stroke:none;stroke-width:0.61739665px;stroke-linecap:butt;stroke-linejoin:miter;stroke-opacity:1" />
  <path
     inkscape:connector-curvature="0"
     id="path7134-6-3-6-3"
     d="m 81.409108,190.68247 -1.6618,-54.92813 -6.066937,49.38614 z"
     style="fill:#1a1a1a;stroke:none;stroke-width:0.61739665px;stroke-linecap:butt;stroke-linejoin:miter;stroke-opacity:1" />
  <path
     inkscape:connector-curvature="0"
     id="path7132-9-8-7-5-2"
     d="m 197.67342,181.81313 35.00451,-0.25645 -7.72874,-5.15636 z"
     style="fill:#000000;stroke:none;stroke-width:0.59549206px;stroke-linecap:butt;stroke-linejoin:miter;stroke-opacity:1" />
  <path
     style="fill:#ff0d0d;fill-opacity:1;fill-rule:evenodd;stroke:#000000;stroke-width:12.4469614;stroke-linecap:butt;stroke-linejoin:round;stroke-miterlimit:4;stroke-dasharray:none;stroke-opacity:1;paint-order:stroke markers fill"
     d="m 62.681359,188.51921 15.072053,8.61261 169.022288,-16.14862 2.00086,-8.1686 -6.30716,-11.20977 -49.52246,-11.84232 -9.72376,-10.01158 9.72376,-12.59651 -19.37835,-24.76122 -26.91437,-5.38288 -90.432313,3.22974 -20.454929,18.30176 5.382877,26.91439 39.833283,-9.68919 19.378342,24.76124 -37.680121,17.22522 z"
     id="path933"
     inkscape:connector-curvature="0"
     sodipodi:nodetypes="ccccccccccccccccc" />
  <path
     style="fill:#ce0003;fill-opacity:1;fill-rule:evenodd;stroke:none;stroke-width:1.07447255px;stroke-linecap:butt;stroke-linejoin:miter;stroke-opacity:1"
     d="m 172.5176,105.97108 -25.86338,-8.96076 26.91437,5.38288 z"
     id="path4934"
     inkscape:connector-curvature="0" />
  <path
     style="opacity:1;fill:#cfcfcf;fill-opacity:1;stroke:#000000;stroke-width:4.29789019;stroke-linecap:butt;stroke-linejoin:round;stroke-miterlimit:4;stroke-dasharray:none;stroke-opacity:1"
     d="m 162.33823,116.02976 -91.259284,2.03077 c 0,0 -1.324256,-30.176778 2.557541,-43.381509 1.732067,-5.891977 9.083274,-12.511073 12.153087,-13.449888 11.057794,-3.381714 56.521066,-3.770029 61.484176,0.942219 3.93323,3.73443 4.1808,3.854944 8.3788,11.062196 3.51053,6.026986 6.68568,42.796212 6.68568,42.796212 z"
     id="path938"
     inkscape:connector-curvature="0"
     sodipodi:nodetypes="ccssssc" />
  <path
     style="fill:#797979;fill-opacity:1;fill-rule:evenodd;stroke:#000000;stroke-width:9.45535851;stroke-linecap:butt;stroke-linejoin:round;stroke-miterlimit:4;stroke-dasharray:none;stroke-opacity:1;paint-order:stroke fill markers"
     d="m 67.909868,97.775234 -17.579745,-9.053071 -9.180268,6.139212 -9.383197,-4.413183 v -8.630175 l 8.20726,-8.207254 12.945256,2.606245 15.046448,9.475983 z"
     id="path969"
     inkscape:connector-curvature="0"
     sodipodi:nodetypes="ccccccccc" />
  <path
     inkscape:connector-curvature="0"
     id="path7132-9-8-7-5"
     d="m 46.404596,190.95813 35.004512,-0.27566 -7.728737,-5.54268 z"
     style="fill:#000000;stroke:none;stroke-width:0.61739665px;stroke-linecap:butt;stroke-linejoin:miter;stroke-opacity:1" />
  <path
     style="fill:#ffffff;fill-opacity:1;fill-rule:evenodd;stroke:none;stroke-width:1.07447255px;stroke-linecap:butt;stroke-linejoin:miter;stroke-opacity:1"
     d="m 62.681359,177.75348 15.16888,9.94611 170.926321,-14.88499 -2.00086,8.1686 -169.022288,16.14862 -15.072053,-8.61261 z"
     id="path1254"
     inkscape:connector-curvature="0"
     sodipodi:nodetypes="ccccccc" />
  <path
     style="fill:#ff3823;fill-opacity:1;fill-rule:evenodd;stroke:none;stroke-width:1.07447255px;stroke-linecap:butt;stroke-linejoin:miter;stroke-opacity:1"
     d="m 50.019304,135.57012 -6.720505,9.88609 39.833284,-9.68919 z"
     id="path883"
     inkscape:connector-curvature="0"
     sodipodi:nodetypes="cccc" />
  <path
     style="fill:#db200d;fill-opacity:1;fill-rule:evenodd;stroke:none;stroke-width:1.07447255px;stroke-linecap:butt;stroke-linejoin:miter;stroke-opacity:1"
     d="m 35.766978,118.54182 5.382877,26.91439 6.720503,-9.88609 z"
     id="path885"
     inkscape:connector-curvature="0"
     sodipodi:nodetypes="cccc" />
  <path
     style="fill:#ba0002;fill-opacity:1;fill-rule:evenodd;stroke:none;stroke-width:1.07447255px;stroke-linecap:butt;stroke-linejoin:miter;stroke-opacity:1"
     d="m 192.94694,149.76251 12.88136,7.03766 32.90231,5.91446 3.73879,-1.1098 z"
     id="path887"
     inkscape:connector-curvature="0"
     sodipodi:nodetypes="ccccc" />
  <path
     style="fill:#ba0002;fill-opacity:1;fill-rule:evenodd;stroke:none;stroke-width:1.07447255px;stroke-linecap:butt;stroke-linejoin:miter;stroke-opacity:1"
     d="m 183.22318,139.75093 4.44584,-12.66769 -15.15142,-21.11216 1.05099,-3.57788 19.37835,24.76122 z"
     id="path889"
     inkscape:connector-curvature="0"
     sodipodi:nodetypes="cccccc" />
  <path
     style="fill:#ff484c;fill-opacity:1;fill-rule:evenodd;stroke:none;stroke-width:1.07447255px;stroke-linecap:butt;stroke-linejoin:miter;stroke-opacity:1"
     d="M 80.087745,180.02441 242.86357,168.95598 248.77656,172.8146 77.6028,188.07074 Z"
     id="path893"
     inkscape:connector-curvature="0"
     sodipodi:nodetypes="ccccc" />
  <path
     style="fill:#ba0002;fill-opacity:1;fill-rule:evenodd;stroke:none;stroke-width:1.07447255px;stroke-linecap:butt;stroke-linejoin:miter;stroke-opacity:1"
     d="m 187.66902,127.08324 -6.59183,13.85146 10.14045,10.14045 14.61066,5.72502 -12.88136,-7.03766 -9.72376,-10.01158 z"
     id="path895"
     inkscape:connector-curvature="0"
     sodipodi:nodetypes="ccccccc" />
  <path
     style="fill:#ba0002;fill-opacity:1;fill-rule:evenodd;stroke:none;stroke-width:1.07447255px;stroke-linecap:butt;stroke-linejoin:miter;stroke-opacity:1"
     d="m 100.36148,160.52826 -27.345072,15.60647 -10.335049,1.61875 z"
     id="path897"
     inkscape:connector-curvature="0"
     sodipodi:nodetypes="cccc" />
  <path
     style="fill:#ff4a4d;fill-opacity:1;fill-rule:evenodd;stroke:none;stroke-width:1.07447255px;stroke-linecap:butt;stroke-linejoin:miter;stroke-opacity:1"
     d="M 80.335183,180.02441 77.6028,188.07074 62.681359,177.75348 73.016408,176.13473 Z"
     id="path1252"
     inkscape:connector-curvature="0"
     sodipodi:nodetypes="ccccc" />
  <path
     style="fill:#ff0000;fill-opacity:1;fill-rule:evenodd;stroke:#000000;stroke-width:6.44683552;stroke-linecap:butt;stroke-linejoin:round;stroke-miterlimit:4;stroke-dasharray:none;stroke-opacity:1"
     d="m 11.005749,50.717592 124.882711,-5.382876 16.14862,7.823858 -137.801607,6.17162 z"
     id="path935"
     inkscape:connector-curvature="0"
     sodipodi:nodetypes="ccccc" />
  <path
     style="fill:#ff0000;fill-opacity:1;fill-rule:evenodd;stroke:none;stroke-width:3.97554874;stroke-linecap:butt;stroke-linejoin:miter;stroke-miterlimit:4;stroke-dasharray:none;stroke-opacity:1"
     d="m 11.005748,50.717592 124.882712,-5.382876 16.14862,7.823858 -137.801608,6.17162 z"
     id="path935-3"
     inkscape:connector-curvature="0"
     sodipodi:nodetypes="ccccc" />
  <path
     style="fill:#ff5353;fill-opacity:1;fill-rule:evenodd;stroke:none;stroke-width:1.07447255px;stroke-linecap:butt;stroke-linejoin:miter;stroke-opacity:1"
     d="M 14.235473,59.330194 12.791767,55.887647 152.03708,53.158574 Z"
     id="path4602"
     inkscape:connector-curvature="0"
     sodipodi:nodetypes="cccc" />
  <path
     style="opacity:1;fill:#ffffff;fill-opacity:1;stroke:none;stroke-width:6.44683552;stroke-linecap:butt;stroke-linejoin:round;stroke-miterlimit:4;stroke-dasharray:none;stroke-opacity:1;paint-order:stroke markers fill"
     d="m 100.65479,22.287057 27.29823,3.376359 9.44678,33.161512 16.37505,31.429447 -2.2749,39.285995 -67.732268,-2.11221 z"
     id="rect4594"
     inkscape:connector-curvature="0"
     sodipodi:nodetypes="ccccccc" />
  <path
     style="fill:#d1d1d1;stroke-width:1.07447255"
     d="m 91.985178,57.316903 c 0.310686,-6.203241 3.00317,-27.768861 3.00317,-27.768861 0,0 2.079144,-1.348365 3.5105,-3.748635 C 110.01756,6.4833002 129.50924,14.790105 132.46931,39.783316 l 1.47735,6.231027 c 2.68894,7.197174 4.42714,14.816895 9.26409,21.059401 0.35898,0.868431 3.10268,4.541838 6.09708,6.85782 5.3095,4.106556 6.17332,6.549465 6.17332,10.959067 0,1.200907 -0.19613,3.833986 0.39483,3.833986 0.59096,0 0.6646,23.135563 0.6646,24.022003 -25.95521,32.06005 -91.756019,42.69026 -64.555402,-55.429717 z m 43.789142,70.377027 c 1.2908,-0.67101 5.52685,-1.73094 5.72846,-1.90175 2.41283,-2.0442 -9.4211,-15.98819 -13.06689,-16.37611 -6.51808,-0.69358 -14.52638,-0.49607 -17.98446,-5.85162 -2.69165,-4.168565 -5.55123,-4.508687 -10.536266,-4.97725 -3.222803,-0.302925 -6.902531,-0.559924 -8.19229,-0.935558 -2.234955,-0.650918 -4.424416,1.181905 -3.94056,6.390868 1.160721,12.49567 4.968999,22.55843 12.262286,20.43314 5.47912,-1.57138 10.69274,-1.66146 19.81061,1.61687 9.67021,3.4769 7.58827,3.3706 15.91911,1.60141 z m 15.74905,-9.33745 c 1.94025,-4.18281 0.0479,-23.272181 -1.85436,-25.174391 -0.89905,-0.899069 -3.61781,0.590718 -4.13385,2.216597 -0.38244,1.205007 -3.19614,4.987154 -5.19414,6.741424 -3.63274,3.18958 -4.12761,5.66396 -1.24932,12.73164 3.30097,8.10556 5.62814,18.15172 12.43167,3.48473 z m -22.41143,-12.6252 c 0.14191,-4.65797 -7.86646,-7.185616 -10.62762,-5.927551 -4.041,0.713811 -4.45528,5.924631 -3.89631,6.454431 1.9604,1.85812 14.43419,2.41933 14.52393,-0.52688 z m -9.42713,-8.013333 c 2.49917,-1.191043 8.28821,-3.309484 2.48596,-6.308071 -8.09546,-7.462884 -15.96378,0.345977 -14.19891,4.945157 0.70068,1.82596 3.54146,5.257237 11.71295,1.362914 z m 24.44677,-2.807614 c 0.66963,-1.251212 4.27521,-4.890434 -0.20054,-7.264488 -3.17575,-1.684522 -9.01956,3.836699 -9.44909,6.067112 -0.54054,2.806765 5.01978,7.038313 9.64963,1.197376 z m -8.99139,-5.436852 c 5.77501,-5.302028 8.14102,-11.206501 -1.98562,-11.485127 -10.76989,-0.296331 -20.18995,3.40548 -11.82805,11.920991 4.8101,4.898483 7.56253,5.303294 13.81367,-0.435864 z m -27.10095,-2.513118 c 0.37689,-1.187491 2.59331,-3.692429 4.92538,-5.566529 2.76031,-2.218258 3.80429,-3.676803 2.99131,-4.179231 -1.98461,-1.226574 5.14366,-4.466352 7.40102,-3.363758 1.54116,0.752764 7.22163,0.874102 15.03291,0.32109 2.17763,-0.154176 1.57989,-2.637407 -2.58267,-10.729427 -4.47729,-8.703827 -4.13194,-8.513375 -8.96791,-4.945504 -4.6881,3.458767 -9.34394,3.432217 -16.30055,-0.09297 -6.44928,-3.268096 -6.49635,-3.22716 -8.37461,7.282933 -1.45898,8.163957 -0.97576,9.392405 3.72294,9.464366 3.63733,0.05566 5.73213,1.883945 3.19331,2.787005 -13.208064,4.698129 -15.023587,6.678863 -8.3132,9.069705 6.78187,2.416309 6.48942,2.418215 7.27207,-0.04778 z m -0.98497,-46.319608 c -0.12057,-5.753467 2.42327,-7.760229 5.91032,-4.662506 2.36819,2.103777 2.36819,2.103777 1.09957,-0.313786 -1.39505,-2.658481 -2.88146,-2.947975 -7.03267,-1.369685 -3.59715,1.367632 -4.12443,10.77132 -0.60398,10.77132 0.39572,0 0.67777,-1.991406 0.62676,-4.425343 z m 20.19125,-6.0108 c -2.39967,-1.754677 -4.87499,-1.415874 -5.59568,0.76589 -0.45652,1.38203 -0.2778,1.401562 1.25405,0.137054 2.07529,-1.71308 4.9186,-0.07984 5.13449,2.949309 0.0921,1.29217 0.26289,1.206229 0.65409,-0.329163 0.31903,-1.252132 -0.25601,-2.65225 -1.44695,-3.52309 z"
     id="path959-6"
     inkscape:connector-curvature="0"
     sodipodi:nodetypes="ccsccccssccccssscscccsscscssccssccscscccsscccccsssssscsccsccsssscscss" />
  <path
     style="fill:#9f9f9f;stroke-width:1.07447255"
     d="m 91.985178,57.316903 c 0,0 0.04011,-13.066007 0.552926,-18.125954 5.926837,-32.206756 34.394216,-34.5718305 39.931206,0.592367 0,0 2.57782,26.133356 19.31185,35.480737 4.08946,2.679533 3.47588,10.058501 3.12912,15.888484 C 169.16257,153.20028 42.101418,149.53284 91.985178,57.316903 Z m 46.941912,69.222657 c 6.00988,-3.07998 -5.69418,-18.05116 -14.01095,-18.06684 -7.61723,-0.0144 -11.72772,-0.41481 -14.48758,-4.6269 -1.26562,-1.93157 -5.16154,-4.900821 -9.02855,-5.379269 -2.85073,-0.352711 -6.754595,-0.968267 -8.675215,-1.367851 -3.492031,-0.72655 -5.640976,1.422385 -5.640976,6.79397 0,13.80745 1.068721,25.386 17.621751,21.14792 6.4172,-1.64299 8.77958,-0.1335 16.22412,2.59992 8.31003,3.05123 13.67376,1.11485 17.9974,-1.10095 z m 12.59628,-8.18308 c 3.54001,-7.79883 -0.58792,-31.477284 -4.228,-25.176495 -0.6828,1.181924 -4.95299,7.097965 -6.91868,8.912785 -4.31361,3.98258 -4.41072,5.83162 -0.54168,14.36461 4.59973,14.79162 9.01469,7.78931 11.68836,1.8991 z m -20.2692,-11.93678 c 0,-2.99456 -8.31169,-7.143746 -10.46155,-7.177372 -3.42459,-0.05347 -8.55959,5.182782 -6.094,6.617122 2.05071,1.19299 16.55555,3.12296 16.55555,0.56025 z m -12.86671,-7.80007 c 10.83065,-3.482283 5.19081,-6.759846 0.8578,-9.000542 -5.0237,-2.597856 -10.80889,-0.337479 -10.47147,4.604117 -1.62099,4.970404 2.79448,6.439515 9.61367,4.396425 z m 24.69724,-2.430125 c 5.74013,-4.626661 1.55525,-9.049539 -1.00233,-9.049539 -2.34669,0 -7.02853,4.692915 -7.30491,6.712283 -0.49487,3.616 3.82557,5.581741 8.30724,2.337256 z m -7.87644,-7.167888 c 9.23243,-8.976418 4.12159,-12.512606 -6.8057,-11.280935 -9.40485,1.060058 -12.62745,5.999865 -7.45442,10.82521 5.51145,5.14103 5.95253,8.532947 14.26012,0.455725 z m -24.34081,-4.6473 c 6.31847,-7.178119 12.20771,-9.60925 21.78849,-8.994393 7.79978,0.500563 7.79978,0.500563 7.06542,-3.515351 -0.5756,-3.147824 -6.14895,-14.779377 -8.15019,-17.009438 -0.20653,-0.23015 -2.0487,0.857754 -4.09372,2.417564 -4.97991,3.798363 -11.13863,3.81304 -17.57365,0.04186 -2.6223,-1.536778 -5.15004,-2.382925 -5.61719,-1.880327 -0.99209,1.067398 -4.306639,17.12271 -4.31446,20.898772 -0.003,1.418426 -1.176006,4.029505 -2.606839,5.802368 -2.655541,3.29036 -1.569382,4.127634 8.923529,6.878739 0.22098,0.05786 2.28136,-2.029962 4.57861,-4.639799 z"
     id="path957-7"
     inkscape:connector-curvature="0"
     sodipodi:nodetypes="ccccccscsscsscscccccsccscscccsscsscscsscssccccc" />
  <path
     style="opacity:1;fill:#ffffff;fill-opacity:1;stroke:none;stroke-width:6.44683552;stroke-linecap:butt;stroke-linejoin:round;stroke-miterlimit:4;stroke-dasharray:none;stroke-opacity:1;paint-order:stroke markers fill"
     d="m 103.19025,30.298533 25.72342,-0.930561 c 0.45518,4.963 5.14661,11.691105 1.36554,14.888998 -4.74426,1.328784 -6.97551,4.251888 -25.37135,0.731156 -4.24577,-2.437638 -2.11641,-9.793061 -1.71761,-14.689593 z"
     id="rect4599"
     inkscape:connector-curvature="0"
     sodipodi:nodetypes="ccccc" />
  <path
     style="fill:#ff3e41;fill-opacity:1;fill-rule:evenodd;stroke:none;stroke-width:1.07447255px;stroke-linecap:butt;stroke-linejoin:miter;stroke-opacity:1"
     d="m 100.36148,160.52826 -19.378342,-24.76124 6.500187,-1.73681 z"
     id="path4932"
     inkscape:connector-curvature="0" />
  <path
     style="fill:#e5be0b;fill-opacity:1;fill-rule:evenodd;stroke:none;stroke-width:1.07447255px;stroke-linecap:butt;stroke-linejoin:miter;stroke-opacity:1"
     d="m 77.598363,135.75367 c 0.290108,-3.61226 12.353019,-7.92807 18.529533,-11.8921 l 14.381104,-1.10623 18.80609,5.80775 7.10058,-1.56848 14.47111,-6.17519 c 4.42496,-1.0688 8.84993,-1.58031 13.27489,-0.82969 4.7937,0.76927 9.58742,1.86928 14.38112,4.70152 1.1439,1.48244 3.10336,1.12989 3.31872,4.70152 -0.52537,2.42283 -23.46687,3.98272 -27.72022,4.65408 l -43.63229,3.48074 c -10.970194,-0.46095 -32.900475,1.54665 -32.910637,-1.77392 z"
     id="path4597"
     inkscape:connector-curvature="0"
     sodipodi:nodetypes="cccccccccccc" />
  <path
     style="fill:#070606;stroke-width:1.07447255"
     d="m 147.28077,139.88829 c -9.19203,-22.55502 -14.45814,-29.81003 -21.73372,-29.94212 -8.12169,-0.14746 -14.09961,-2.6131 -16.60069,-6.84708 -1.50327,-2.54483 -2.64916,-3.04745 -8.31108,-3.645548 -3.612057,-0.38157 -7.827986,-0.971938 -9.3687,-1.311941 -6.025782,-1.329786 -1.561263,19.934969 4.861316,25.719969 l -12.440341,7.03109 c -14.171113,-5.27747 -9.153999,-55.613415 1.217158,-64.847049 2.991624,-2.663499 5.246218,-7.331092 5.298116,-22.789748 0.125339,-37.3332168 36.866911,-40.3326335 42.190411,-7.031568 1.37967,8.630563 0.77986,9.97325 -0.11121,9.422543 -0.47388,-0.292879 -1.17242,-2.875457 -1.55228,-5.739063 -1.51861,-11.447878 -10.3373,-12.369855 -10.3373,-0.05935 0,2.956462 -0.48627,5.082846 -2.2161,5.082846 -1.63314,0 -2.08179,-2.932138 -2.08179,-5.200164 0,-13.449213 -13.24828,-11.043312 -13.4665,0.566543 -0.0496,2.632605 -0.6661,5.362698 -1.37028,6.06687 -1.755112,1.755137 -1.60872,5.740957 0.28023,7.629936 0.8583,0.858298 1.37017,1.750918 1.13749,1.983599 -0.23269,0.232681 -1.45017,5.488006 -2.70551,11.678493 -1.29368,6.379457 -3.223859,12.572066 -4.455515,14.294689 -2.615072,3.657486 -2.807131,3.428776 5.058305,6.0236 6.3379,2.09088 6.01211,2.476429 8.36905,-0.462328 4.85684,-6.055769 7.08915,-8.292502 14.75842,-10.959606 3.92959,-1.366584 12.90921,-0.645321 16.76961,0.641273 3.08704,1.028876 1.34588,-5.747227 -3.79884,-15.507601 -1.85916,-3.527145 -5.23899,-18.035257 -4.38899,-16.039735 1.18749,-4.351173 4.53512,5.489253 5.76669,10.380273 1.17931,4.683465 5.1676,12.192437 14.5779,19.264085 3.63964,2.735114 3.75999,3.054957 3.74001,9.938859 l 1.77936,24.162533 c 0.58149,8.12707 -1.79764,10.63913 -1.79764,10.63913 l -9.56751,2.98373 c 5.59573,-9.17929 5.25449,-21.12529 3.48099,-26.029777 -1.57851,-4.365292 -2.47696,-4.487368 -3.8585,-0.524303 -0.58362,1.674208 -2.89679,4.77583 -5.14034,6.89249 -4.6504,4.38738 -4.30248,5.73129 7.78497,30.06968 6.63388,13.3575 6.45082,12.64297 3.23914,12.64297 -2.02119,0 -2.96125,-1.16012 -5.00633,-6.17822 z m -19.36702,-33.61912 c 1.83784,-1.23542 -3.37811,-6.38958 -6.47637,-6.399645 -1.9597,-0.006 -6.4173,2.955435 -6.4173,4.263935 0,2.39368 10.03675,4.05617 12.89367,2.13571 z m -9.32442,-9.192176 c 5.62964,-1.9182 6.12465,-2.899834 2.60897,-5.173818 -5.23857,-6.398525 -11.55058,-2.98554 -11.55058,2.541128 0,4.91216 1.20795,5.267823 8.94161,2.63269 z m 25.89992,-3.933798 c 1.2619,-3.610044 -0.30709,-5.632075 -3.56731,-4.597324 -3.16805,1.005505 -5.48688,3.578184 -5.48688,6.087551 0,3.647351 7.70143,2.37977 9.05419,-1.490227 z m -10.08262,-4.708008 c 7.46376,-6.981473 6.26351,-9.61751 -3.91115,-9.36058 -10.39358,0.262436 -14.79518,4.11944 -8.52552,9.898599 5.98678,5.518429 5.96062,5.519556 12.43667,-0.538019 z m -4.55883,46.671692 c 1.00285,-1.00283 1.5759,-1.00283 2.57874,0 1.00284,1.00284 0.71631,1.28936 -1.28937,1.28936 -2.00569,0 -2.29221,-0.28652 -1.28937,-1.28936 z M 108.41568,44.566783 c -1.15818,-1.158183 -2.45795,-5.774321 -0.12787,-8.65363 1.95056,-1.95057 3.83681,-0.997068 4.60344,1.570199 1.89917,6.360009 -0.98494,9.603167 -4.47557,7.083431 z m 15.89485,-0.22732 c -2.43958,-0.541139 -2.39864,-8.914291 0.35938,-9.480793 3.68441,-0.612321 4.00898,5.448069 2.60366,10.193324 z"
     id="path947-6"
     inkscape:connector-curvature="0"
     sodipodi:nodetypes="ssccsccssscssssccscscssssccsscccccccssscsscscsscsscsscsscssccsccccc" />
  <path
     style="fill:#333333;stroke:#000000;stroke-width:10.74472523;stroke-linecap:butt;stroke-linejoin:round;stroke-miterlimit:4;stroke-dasharray:none;stroke-opacity:1;paint-order:stroke fill markers"
     d="m 79.747013,135.75414 -33.894151,1.1815 0.216153,21.24603 h 34.35584 z"
     id="path7066-6-2-7-6-73"
     inkscape:connector-curvature="0" />
  <path
     style="fill:#333333;stroke:none;stroke-width:10.74472523;stroke-linecap:butt;stroke-linejoin:miter;stroke-miterlimit:4;stroke-dasharray:none;stroke-opacity:1;paint-order:stroke fill markers"
     d="m 79.747013,135.75414 -33.894151,1.1815 0.277011,27.02132 h 34.471262 z"
     id="path7066-6-2-7-6-5"
     inkscape:connector-curvature="0" />
  <path
     inkscape:connector-curvature="0"
     id="path7128-4-90-8-5-6"
     d="m 79.746971,135.75435 -30.448578,6.14235 -3.444936,-4.96102 z"
     style="fill:#4d4d4d;stroke:none;stroke-width:0.61739665px;stroke-linecap:butt;stroke-linejoin:miter;stroke-opacity:1" />
  <path
     style="fill:#666666;stroke:none;stroke-width:0.61739665px;stroke-linecap:butt;stroke-linejoin:miter;stroke-opacity:1"
     d="m 45.852862,136.93564 0.216153,21.24603 h 2.268564 l 0.961149,-16.28498 z"
     id="path7130-9-61-0-7-1"
     inkscape:connector-curvature="0" />
  <path
     style="fill:#1a1a1a;stroke:none;stroke-width:0.61739665px;stroke-linecap:butt;stroke-linejoin:miter;stroke-opacity:1"
     d="m 79.747013,135.75414 -2.755435,22.42753 h 3.433277 z"
     id="path7134-6-3-6-3-2"
     inkscape:connector-curvature="0" />
  <path
     style="fill:#1a1a1a;stroke:none;stroke-width:0.61739665px;stroke-linecap:butt;stroke-linejoin:miter;stroke-opacity:1"
     d="m 79.747013,135.75414 -3.498331,28.46933 h 4.35875 z"
     id="path7134-6-3-6-3-8"
     inkscape:connector-curvature="0" />
  <path
     style="fill:#666666;stroke:none;stroke-width:0.61739665px;stroke-linecap:butt;stroke-linejoin:miter;stroke-opacity:1"
     d="m 45.852862,136.93564 0.27911,27.28994 h 1.848848 l 1.317908,-22.32889 z"
     id="path7130-9-61-0-7-4"
     inkscape:connector-curvature="0" />
  <path
     style="fill:#9d0003;fill-opacity:1;fill-rule:evenodd;stroke:none;stroke-width:1.07447255px;stroke-linecap:butt;stroke-linejoin:miter;stroke-opacity:1"
     d="m 242.4694,161.60483 -3.73879,1.1098 4.13296,6.24135 5.91299,3.85862 z"
     id="path4930"
     inkscape:connector-curvature="0"
     sodipodi:nodetypes="ccccc" />
  <path
     inkscape:connector-curvature="0"
     id="path7130-9-61-0-7-93-3"
     d="m 41.149855,94.861375 9.180268,-6.139212 -18.563465,1.726029 z"
     style="fill:#666666;stroke:none;stroke-width:0.61739665px;stroke-linecap:butt;stroke-linejoin:miter;stroke-opacity:1"
     sodipodi:nodetypes="cccc" />
  <path
     inkscape:connector-curvature="0"
     id="path7130-9-61-0-7-93-3-6"
     d="m 39.973918,73.610763 12.945256,2.606245 15.046448,9.475983 z"
     style="fill:#a3a3a3;fill-opacity:1;stroke:none;stroke-width:0.60327274px;stroke-linecap:butt;stroke-linejoin:miter;stroke-opacity:1"
     sodipodi:nodetypes="cccc" />
  <path
     style="fill:#e5be0b;stroke-width:1.07447255"
     d="m 101.06808,50.972562 c 2.71951,-12.065108 33.06982,-9.523567 31.08909,-0.642672 0,0 -9.46049,17.684643 -31.08909,0.642672 z"
     id="path955-5"
     inkscape:connector-curvature="0"
     sodipodi:nodetypes="ccc" />
  <path
     style="fill:none;fill-rule:evenodd;stroke:#b99200;stroke-width:1.07447255px;stroke-linecap:round;stroke-linejoin:round;stroke-opacity:1;paint-order:normal"
     d="m 101.68047,50.885079 c 14.25569,3.046776 22.50856,1.48725 30.03928,-1.167567"
     id="path4928"
     inkscape:connector-curvature="0"
     sodipodi:nodetypes="cc" />
  <rect
     style="opacity:1;fill:#000000;fill-opacity:1;stroke:none;stroke-width:10.3451252;stroke-linecap:round;stroke-linejoin:round;stroke-miterlimit:4;stroke-dasharray:none;stroke-opacity:1;paint-order:normal"
     id="rect5268"
     width="7.6984701"
     height="12.947427"
     x="84.499725"
     y="151.00954" />
  <path
     sodipodi:type="inkscape:offset"
     inkscape:radius="2.574008"
     inkscape:original="M 3487.7969 1263.3164 L 3482.5098 1274.7109 L 3472.832 1263.3398 L 3466.3125 1268.5488 L 3478.8359 1279.334 L 3468.6719 1289.873 L 3477.1875 1294.1348 L 3483.5254 1284.1426 L 3491.5039 1294.6094 L 3498.2227 1289.6484 L 3487.0703 1278.8398 L 3495.5586 1267.0156 L 3487.7969 1263.3164 z "
     style="fill:#000000;stroke:none;stroke-width:2.26385689px;stroke-linecap:butt;stroke-linejoin:miter;stroke-opacity:1"
     id="path5323-89-7"
     d="m 3487.9121,1260.7441 a 2.5742654,2.5742654 0 0 0 -2.4492,1.4883 l -3.5957,7.75 -7.0742,-8.3105 a 2.5742654,2.5742654 0 0 0 -3.5684,-0.3438 l -6.5195,5.209 a 2.5742654,2.5742654 0 0 0 -0.072,3.9629 l 10.459,9.0078 -8.2734,8.5781 a 2.5742654,2.5742654 0 0 0 0.7011,4.0899 l 8.5157,4.2617 a 2.5742654,2.5742654 0 0 0 3.3261,-0.9238 l 4.3575,-6.8711 5.7382,7.5273 a 2.5742654,2.5742654 0 0 0 3.5762,0.5098 l 6.7188,-4.9609 a 2.5742654,2.5742654 0 0 0 0.2617,-3.918 l -9.5567,-9.2637 7.1934,-10.0195 a 2.5742654,2.5742654 0 0 0 -0.9844,-3.8262 l -7.7617,-3.6992 a 2.5742654,2.5742654 0 0 0 -0.9922,-0.2481 z"
     transform="matrix(3.2526282,0,0,3.2526282,-11134.787,-3967.2545)" />
  <path
     style="fill:#e91616;fill-opacity:1;stroke:none;stroke-width:1.94930053px;stroke-linecap:butt;stroke-linejoin:miter;stroke-opacity:1"
     d="m 139.83961,158.86646 21.20257,-16.93818 31.48026,36.98688 17.19828,-37.06923 25.24264,12.03777 -27.60668,38.45886 36.2756,35.15469 -21.85409,16.13524 -25.94979,-34.04474 -20.61419,32.50354 -27.70166,-13.85948 33.06168,-34.2811 z"
     id="path3606-3"
     inkscape:connector-curvature="0"
     sodipodi:nodetypes="ccccccccccccc" />
  <path
     style="fill:#ba1212;fill-opacity:1;stroke:none;stroke-width:1.5188179px;stroke-linecap:butt;stroke-linejoin:miter;stroke-opacity:1"
     d="m 147.51255,228.23181 21.25755,-1.50505 6.44411,15.36453 z"
     id="path3612-3"
     inkscape:connector-curvature="0"
     sodipodi:nodetypes="cccc" />
  <path
     style="fill:#ba1212;fill-opacity:1;stroke:none;stroke-width:1.5188179px;stroke-linecap:butt;stroke-linejoin:miter;stroke-opacity:1"
     d="m 168.7701,226.72676 27.0583,-17.13901 -20.61419,32.50354 z"
     id="path3614-3"
     inkscape:connector-curvature="0"
     sodipodi:nodetypes="cccc" />
  <path
     style="fill:#ba1212;fill-opacity:1;stroke:none;stroke-width:1.5188179px;stroke-linecap:butt;stroke-linejoin:miter;stroke-opacity:1"
     d="m 221.77819,243.63249 3.88105,-15.11585 17.97304,-1.01939 z"
     id="path3616-8"
     inkscape:connector-curvature="0"
     sodipodi:nodetypes="cccc" />
  <path
     style="fill:#ba1212;fill-opacity:1;stroke:none;stroke-width:1.5188179px;stroke-linecap:butt;stroke-linejoin:miter;stroke-opacity:1"
     d="m 207.35668,192.34256 27.60668,-38.45886 -29.5872,26.3482 z"
     id="path3618-6"
     inkscape:connector-curvature="0"
     sodipodi:nodetypes="cccc" />
  <path
     style="fill:#ed4545;fill-opacity:1;stroke:none;stroke-width:1.5188179px;stroke-linecap:butt;stroke-linejoin:miter;stroke-opacity:1"
     d="m 192.52244,178.91516 24.41032,-24.97828 -7.21204,-12.09095 z"
     id="path3620-0"
     inkscape:connector-curvature="0"
     sodipodi:nodetypes="cccc" />
  <path
     style="fill:#ed4545;fill-opacity:1;stroke:none;stroke-width:1.5188179px;stroke-linecap:butt;stroke-linejoin:miter;stroke-opacity:1"
     d="m 147.51255,228.23181 36.35366,-24.95465 -3.29198,-9.32645 z"
     id="path3622-4"
     inkscape:connector-curvature="0"
     sodipodi:nodetypes="cccc" />
  <path
     style="fill:#ed4545;fill-opacity:1;stroke:none;stroke-width:1.5188179px;stroke-linecap:butt;stroke-linejoin:miter;stroke-opacity:1"
     d="m 139.83961,158.86646 18.47752,-3.96173 2.72505,-12.97645 z"
     id="path3624-8"
     inkscape:connector-curvature="0"
     sodipodi:nodetypes="cccc" />
  <path
     style="fill:#ed4545;fill-opacity:1;stroke:none;stroke-width:1.5188179px;stroke-linecap:butt;stroke-linejoin:miter;stroke-opacity:1"
     d="m 216.93276,153.93688 18.0306,-0.0513 -25.24264,-12.03756 z"
     id="path3626-8"
     inkscape:connector-curvature="0"
     sodipodi:nodetypes="cccc" />
  <path
     style="fill:#ba1212;fill-opacity:1;stroke:none;stroke-width:1.5188179px;stroke-linecap:butt;stroke-linejoin:miter;stroke-opacity:1"
     d="m 225.65924,228.51664 -29.83084,-18.92889 25.94979,34.04474"
     id="path3904-8"
     inkscape:connector-curvature="0"
     sodipodi:nodetypes="ccc" />
  <path
     style="fill:#ed4545;fill-opacity:1;stroke:none;stroke-width:1.5188179px;stroke-linecap:butt;stroke-linejoin:miter;stroke-opacity:1"
     d="m 192.52244,178.91516 -31.48026,-36.98688 -2.72505,12.97645 z"
     id="path3908-9"
     inkscape:connector-curvature="0"
     sodipodi:nodetypes="cccc" />
</svg>
